G04*
G04 #@! TF.GenerationSoftware,Altium Limited,Altium Designer,20.2.4 (192)*
G04*
G04 Layer_Color=8388736*
%FSLAX44Y44*%
%MOMM*%
G71*
G04*
G04 #@! TF.SameCoordinates,784D42F2-C5A6-4340-B429-8165139C0F3B*
G04*
G04*
G04 #@! TF.FilePolarity,Positive*
G04*
G01*
G75*
%ADD11C,0.3000*%
%ADD14C,0.1524*%
%ADD75C,1.0160*%
%ADD76C,0.2540*%
D11*
X228000Y423000D02*
Y442994D01*
X234664Y436329D01*
X241329Y442994D01*
Y423000D01*
X261323Y442994D02*
X247994D01*
Y423000D01*
X261323D01*
X247994Y432997D02*
X254658D01*
X281316Y439661D02*
X277984Y442994D01*
X271319D01*
X267987Y439661D01*
Y426332D01*
X271319Y423000D01*
X277984D01*
X281316Y426332D01*
X287981Y442994D02*
Y423000D01*
Y432997D01*
X301310D01*
Y442994D01*
Y423000D01*
X307974D02*
Y436329D01*
X314639Y442994D01*
X321303Y436329D01*
Y423000D01*
Y432997D01*
X307974D01*
X327968Y423000D02*
Y442994D01*
X341297Y423000D01*
Y442994D01*
X347961D02*
X354626D01*
X351294D01*
Y423000D01*
X347961D01*
X354626D01*
X377952Y439661D02*
X374619Y442994D01*
X367955D01*
X364623Y439661D01*
Y426332D01*
X367955Y423000D01*
X374619D01*
X377952Y426332D01*
X384616Y423000D02*
Y436329D01*
X391281Y442994D01*
X397945Y436329D01*
Y423000D01*
Y432997D01*
X384616D01*
X404610Y442994D02*
Y423000D01*
X417939D01*
X444597Y442994D02*
Y423000D01*
X454594D01*
X457926Y426332D01*
Y439661D01*
X454594Y442994D01*
X444597D01*
X464590Y423000D02*
Y442994D01*
X474587D01*
X477920Y439661D01*
Y432997D01*
X474587Y429664D01*
X464590D01*
X471255D02*
X477920Y423000D01*
X484584D02*
Y436329D01*
X491249Y442994D01*
X497913Y436329D01*
Y423000D01*
Y432997D01*
X484584D01*
X504578Y442994D02*
Y423000D01*
X511242Y429664D01*
X517907Y423000D01*
Y442994D01*
X524571D02*
X531236D01*
X527903D01*
Y423000D01*
X524571D01*
X531236D01*
X541232D02*
Y442994D01*
X554561Y423000D01*
Y442994D01*
X574555Y439661D02*
X571223Y442994D01*
X564558D01*
X561226Y439661D01*
Y426332D01*
X564558Y423000D01*
X571223D01*
X574555Y426332D01*
Y432997D01*
X567891D01*
X-250336Y-68669D02*
X-252002Y-67003D01*
X-255334D01*
X-257000Y-68669D01*
Y-70335D01*
X-255334Y-72002D01*
X-252002D01*
X-250336Y-73668D01*
Y-75334D01*
X-252002Y-77000D01*
X-255334D01*
X-257000Y-75334D01*
X-240339Y-70335D02*
X-245337D01*
X-247003Y-72002D01*
Y-75334D01*
X-245337Y-77000D01*
X-240339D01*
X-235340Y-70335D02*
X-232008D01*
X-230342Y-72002D01*
Y-77000D01*
X-235340D01*
X-237006Y-75334D01*
X-235340Y-73668D01*
X-230342D01*
X-227010Y-77000D02*
X-223677D01*
X-225343D01*
Y-67003D01*
X-227010D01*
X-213681Y-77000D02*
X-217013D01*
X-218679Y-75334D01*
Y-72002D01*
X-217013Y-70335D01*
X-213681D01*
X-212015Y-72002D01*
Y-73668D01*
X-218679D01*
X-198685Y-70335D02*
X-197019D01*
Y-72002D01*
X-198685D01*
Y-70335D01*
Y-75334D02*
X-197019D01*
Y-77000D01*
X-198685D01*
Y-75334D01*
X-180358Y-77000D02*
X-177026D01*
X-178692D01*
Y-67003D01*
X-180358Y-68669D01*
X-172027Y-70335D02*
X-170361D01*
Y-72002D01*
X-172027D01*
Y-70335D01*
Y-75334D02*
X-170361D01*
Y-77000D01*
X-172027D01*
Y-75334D01*
X-163697Y-77000D02*
X-160364D01*
X-162031D01*
Y-67003D01*
X-163697Y-68669D01*
X-254500Y-42003D02*
Y-50334D01*
X-252834Y-52000D01*
X-249502D01*
X-247836Y-50334D01*
Y-42003D01*
X-244503Y-52000D02*
Y-45335D01*
X-239505D01*
X-237839Y-47002D01*
Y-52000D01*
X-234506D02*
X-231174D01*
X-232840D01*
Y-45335D01*
X-234506D01*
X-224510Y-43669D02*
Y-45335D01*
X-226176D01*
X-222843D01*
X-224510D01*
Y-50334D01*
X-222843Y-52000D01*
X-217845D02*
X-212847D01*
X-211181Y-50334D01*
X-212847Y-48668D01*
X-216179D01*
X-217845Y-47002D01*
X-216179Y-45335D01*
X-211181D01*
X-197852D02*
X-196185D01*
Y-47002D01*
X-197852D01*
Y-45335D01*
Y-50334D02*
X-196185D01*
Y-52000D01*
X-197852D01*
Y-50334D01*
X-179524Y-52000D02*
Y-45335D01*
X-177858D01*
X-176192Y-47002D01*
Y-52000D01*
Y-47002D01*
X-174526Y-45335D01*
X-172860Y-47002D01*
Y-52000D01*
X-169527D02*
Y-45335D01*
X-167861D01*
X-166195Y-47002D01*
Y-52000D01*
Y-47002D01*
X-164529Y-45335D01*
X-162863Y-47002D01*
Y-52000D01*
D14*
X66681Y-23241D02*
X56524D01*
Y-30859D01*
X61602Y-28319D01*
X64142D01*
X66681Y-30859D01*
Y-35937D01*
X64142Y-38476D01*
X59063D01*
X56524Y-35937D01*
X356524Y-90780D02*
X359063Y-88241D01*
X364142D01*
X366681Y-90780D01*
Y-93319D01*
X364142Y-95858D01*
X366681Y-98398D01*
Y-100937D01*
X364142Y-103476D01*
X359063D01*
X356524Y-100937D01*
Y-98398D01*
X359063Y-95858D01*
X356524Y-93319D01*
Y-90780D01*
X359063Y-95858D02*
X364142D01*
X371759Y-90780D02*
X374298Y-88241D01*
X379377D01*
X381916Y-90780D01*
Y-100937D01*
X379377Y-103476D01*
X374298D01*
X371759Y-100937D01*
Y-90780D01*
X358240Y-51406D02*
X368397D01*
Y-53946D01*
X358240Y-64102D01*
Y-66642D01*
X383632Y-51406D02*
X373475D01*
Y-59024D01*
X378554Y-56485D01*
X381093D01*
X383632Y-59024D01*
Y-64102D01*
X381093Y-66642D01*
X376014D01*
X373475Y-64102D01*
X-36759Y69181D02*
Y59024D01*
X-29142D01*
X-31681Y64102D01*
Y66642D01*
X-29142Y69181D01*
X-24063D01*
X-21524Y66642D01*
Y61563D01*
X-24063Y59024D01*
X-74220Y121524D02*
X-76759Y124063D01*
Y129142D01*
X-74220Y131681D01*
X-71681D01*
X-69142Y129142D01*
Y126602D01*
Y129142D01*
X-66602Y131681D01*
X-64063D01*
X-61524Y129142D01*
Y124063D01*
X-64063Y121524D01*
X-74220Y136759D02*
X-76759Y139298D01*
Y144377D01*
X-74220Y146916D01*
X-64063D01*
X-61524Y144377D01*
Y139298D01*
X-64063Y136759D01*
X-74220D01*
X-114220Y121524D02*
X-116759Y124063D01*
Y129142D01*
X-114220Y131681D01*
X-111681D01*
X-109142Y129142D01*
Y126602D01*
Y129142D01*
X-106602Y131681D01*
X-104063D01*
X-101524Y129142D01*
Y124063D01*
X-104063Y121524D01*
X-116759Y146916D02*
Y136759D01*
X-109142D01*
X-111681Y141837D01*
Y144377D01*
X-109142Y146916D01*
X-104063D01*
X-101524Y144377D01*
Y139298D01*
X-104063Y136759D01*
D75*
X766000Y300000D02*
G03*
X766000Y300000I-16000J0D01*
G01*
Y50000D02*
G03*
X766000Y50000I-16000J0D01*
G01*
X66000D02*
G03*
X66000Y50000I-16000J0D01*
G01*
Y300000D02*
G03*
X66000Y300000I-16000J0D01*
G01*
X0Y0D02*
X800000D01*
Y350000D01*
X0D02*
X800000D01*
X0Y0D02*
Y350000D01*
D76*
X50000Y-32540D02*
Y299000D01*
X0Y-32540D02*
Y342380D01*
Y-30000D02*
X25000D01*
X34760Y-24920D02*
X50000Y-30000D01*
X34760Y-35080D02*
X50000Y-30000D01*
X0D02*
X15240Y-35080D01*
X0Y-30000D02*
X15240Y-24920D01*
X800000Y-97540D02*
Y-7620D01*
X0Y-97540D02*
Y-7620D01*
X385980Y-95000D02*
X800000D01*
X0D02*
X352460D01*
X784760Y-89920D02*
X800000Y-95000D01*
X784760Y-100080D02*
X800000Y-95000D01*
X0D02*
X15240Y-100080D01*
X0Y-95000D02*
X15240Y-89920D01*
X750000Y-60040D02*
Y302500D01*
X0Y-60040D02*
Y342380D01*
Y-57500D02*
X354176D01*
X734760Y-52420D02*
X750000Y-57500D01*
X734760Y-62580D02*
X750000Y-57500D01*
X0D02*
X15240Y-62580D01*
X0Y-57500D02*
X15240Y-52420D01*
X-32540Y49000D02*
X750000D01*
X-32540Y0D02*
X792380D01*
X-30000D02*
Y24500D01*
X-35080Y33760D02*
X-30000Y49000D01*
X-24920Y33760D01*
X-30000Y0D02*
X-24920Y15240D01*
X-35080D02*
X-30000Y0D01*
X-70040Y302500D02*
X750000D01*
X-70040Y0D02*
X792380D01*
X-67500D02*
Y117460D01*
X-72580Y287260D02*
X-67500Y302500D01*
X-62420Y287260D01*
X-67500Y0D02*
X-62420Y15240D01*
X-72580D02*
X-67500Y0D01*
X-110040D02*
X-7620D01*
X-110040Y350000D02*
X-7620D01*
X-107500Y0D02*
Y117460D01*
Y150980D02*
Y350000D01*
Y0D02*
X-102420Y15240D01*
X-112580D02*
X-107500Y0D01*
X-112580Y334760D02*
X-107500Y350000D01*
X-102420Y334760D01*
M02*
