G04*
G04 #@! TF.GenerationSoftware,Altium Limited,Altium Designer,20.2.4 (192)*
G04*
G04 Layer_Color=16777215*
%FSLAX44Y44*%
%MOMM*%
G71*
G04*
G04 #@! TF.SameCoordinates,784D42F2-C5A6-4340-B429-8165139C0F3B*
G04*
G04*
G04 #@! TF.FilePolarity,Positive*
G04*
G01*
G75*
%ADD13C,0.2000*%
%ADD63C,0.3810*%
%ADD77C,0.6350*%
%ADD78C,0.4064*%
D13*
X-25000Y-230000D02*
X1100000D01*
X-25000Y-150000D02*
X1100000D01*
Y-275000D02*
Y-150000D01*
X-25000Y-275000D02*
X1100000D01*
X-25000D02*
Y-150000D01*
D63*
X-5628Y1101835D02*
Y1081522D01*
X4528D01*
X7914Y1084908D01*
Y1088293D01*
X4528Y1091679D01*
X-5628D01*
X4528D01*
X7914Y1095064D01*
Y1098450D01*
X4528Y1101835D01*
X-5628D01*
X18071Y1081522D02*
X24842D01*
X28227Y1084908D01*
Y1091679D01*
X24842Y1095064D01*
X18071D01*
X14685Y1091679D01*
Y1084908D01*
X18071Y1081522D01*
X38384Y1095064D02*
X45155D01*
X48541Y1091679D01*
Y1081522D01*
X38384D01*
X34999Y1084908D01*
X38384Y1088293D01*
X48541D01*
X55312Y1095064D02*
Y1081522D01*
Y1088293D01*
X58698Y1091679D01*
X62083Y1095064D01*
X65469D01*
X89168Y1101835D02*
Y1081522D01*
X79011D01*
X75625Y1084908D01*
Y1091679D01*
X79011Y1095064D01*
X89168D01*
X116252Y1101835D02*
X123023D01*
X119638D01*
Y1081522D01*
X116252D01*
X123023D01*
X133180D02*
Y1095064D01*
X143337D01*
X146722Y1091679D01*
Y1081522D01*
X156879D02*
Y1098450D01*
Y1091679D01*
X153493D01*
X160265D01*
X156879D01*
Y1098450D01*
X160265Y1101835D01*
X173807Y1081522D02*
X180578D01*
X183964Y1084908D01*
Y1091679D01*
X180578Y1095064D01*
X173807D01*
X170421Y1091679D01*
Y1084908D01*
X173807Y1081522D01*
X-5628Y1014482D02*
X1143D01*
X-2243D01*
Y1034795D01*
X-5628Y1031410D01*
X11300Y1014482D02*
Y1017867D01*
X14685D01*
Y1014482D01*
X11300D01*
X62083Y1034795D02*
X48541D01*
Y1024639D01*
X55312D01*
X48541D01*
Y1014482D01*
X68854Y1034795D02*
X75625D01*
X72240D01*
Y1014482D01*
X68854D01*
X75625D01*
X85782D02*
Y1034795D01*
X99324Y1014482D01*
Y1034795D01*
X106096D02*
X112867D01*
X109481D01*
Y1014482D01*
X106096D01*
X112867D01*
X136566Y1031410D02*
X133180Y1034795D01*
X126409D01*
X123023Y1031410D01*
Y1028024D01*
X126409Y1024639D01*
X133180D01*
X136566Y1021253D01*
Y1017867D01*
X133180Y1014482D01*
X126409D01*
X123023Y1017867D01*
X143337Y1034795D02*
Y1014482D01*
Y1024639D01*
X156879D01*
Y1034795D01*
Y1014482D01*
X177192Y1034795D02*
X163650D01*
Y1014482D01*
X177192D01*
X163650Y1024639D02*
X170421D01*
X183964Y1034795D02*
Y1014482D01*
X194120D01*
X197506Y1017867D01*
Y1031410D01*
X194120Y1034795D01*
X183964D01*
X224590Y1014482D02*
Y1034795D01*
X234747D01*
X238133Y1031410D01*
Y1024639D01*
X234747Y1021253D01*
X224590D01*
X244904Y1014482D02*
Y1028024D01*
X251675Y1034795D01*
X258446Y1028024D01*
Y1014482D01*
Y1024639D01*
X244904D01*
X265217Y1014482D02*
Y1034795D01*
X278760Y1014482D01*
Y1034795D01*
X299073D02*
X285531D01*
Y1014482D01*
X299073D01*
X285531Y1024639D02*
X292302D01*
X305844Y1034795D02*
Y1014482D01*
X319386D01*
X346471Y1034795D02*
X360013D01*
X353242D01*
Y1014482D01*
X366784Y1034795D02*
Y1014482D01*
Y1024639D01*
X380327D01*
Y1034795D01*
Y1014482D01*
X387098Y1034795D02*
X393869D01*
X390483D01*
Y1014482D01*
X387098D01*
X393869D01*
X417568Y1031410D02*
X414182Y1034795D01*
X407411D01*
X404026Y1031410D01*
Y1017867D01*
X407411Y1014482D01*
X414182D01*
X417568Y1017867D01*
X424339Y1034795D02*
Y1014482D01*
Y1021253D01*
X437881Y1034795D01*
X427725Y1024639D01*
X437881Y1014482D01*
X444652D02*
Y1034795D01*
X458195Y1014482D01*
Y1034795D01*
X478508D02*
X464966D01*
Y1014482D01*
X478508D01*
X464966Y1024639D02*
X471737D01*
X498822Y1031410D02*
X495436Y1034795D01*
X488665D01*
X485279Y1031410D01*
Y1028024D01*
X488665Y1024639D01*
X495436D01*
X498822Y1021253D01*
Y1017867D01*
X495436Y1014482D01*
X488665D01*
X485279Y1017867D01*
X519135Y1031410D02*
X515750Y1034795D01*
X508978D01*
X505593Y1031410D01*
Y1028024D01*
X508978Y1024639D01*
X515750D01*
X519135Y1021253D01*
Y1017867D01*
X515750Y1014482D01*
X508978D01*
X505593Y1017867D01*
X546220Y1034795D02*
X552991D01*
X549605D01*
Y1014482D01*
X546220D01*
X552991D01*
X576690Y1031410D02*
X573304Y1034795D01*
X566533D01*
X563148Y1031410D01*
Y1028024D01*
X566533Y1024639D01*
X573304D01*
X576690Y1021253D01*
Y1017867D01*
X573304Y1014482D01*
X566533D01*
X563148Y1017867D01*
X603774Y1014482D02*
Y1034795D01*
X617317Y1014482D01*
Y1034795D01*
X634244D02*
X627473D01*
X624088Y1031410D01*
Y1017867D01*
X627473Y1014482D01*
X634244D01*
X637630Y1017867D01*
Y1031410D01*
X634244Y1034795D01*
X644401D02*
X657943D01*
X651172D01*
Y1014482D01*
X698570Y1031410D02*
X695185Y1034795D01*
X688414D01*
X685028Y1031410D01*
Y1017867D01*
X688414Y1014482D01*
X695185D01*
X698570Y1017867D01*
X705341Y1014482D02*
Y1034795D01*
X715498D01*
X718884Y1031410D01*
Y1024639D01*
X715498Y1021253D01*
X705341D01*
X712113D02*
X718884Y1014482D01*
X725655Y1034795D02*
X732426D01*
X729040D01*
Y1014482D01*
X725655D01*
X732426D01*
X742583Y1034795D02*
X756125D01*
X749354D01*
Y1014482D01*
X762896Y1034795D02*
X769667D01*
X766282D01*
Y1014482D01*
X762896D01*
X769667D01*
X793366Y1031410D02*
X789981Y1034795D01*
X783210D01*
X779824Y1031410D01*
Y1017867D01*
X783210Y1014482D01*
X789981D01*
X793366Y1017867D01*
X800137Y1014482D02*
Y1028024D01*
X806908Y1034795D01*
X813680Y1028024D01*
Y1014482D01*
Y1024639D01*
X800137D01*
X820451Y1034795D02*
Y1014482D01*
X833993D01*
X840764Y1028024D02*
X844150D01*
Y1024639D01*
X840764D01*
Y1028024D01*
Y1017867D02*
X844150D01*
Y1014482D01*
X840764D01*
Y1017867D01*
X878006Y1034795D02*
X891548D01*
X884777D01*
Y1014482D01*
X908476Y1034795D02*
X901704D01*
X898319Y1031410D01*
Y1017867D01*
X901704Y1014482D01*
X908476D01*
X911861Y1017867D01*
Y1031410D01*
X908476Y1034795D01*
X938946D02*
Y1014482D01*
X949102D01*
X952488Y1017867D01*
Y1021253D01*
X949102Y1024639D01*
X938946D01*
X949102D01*
X952488Y1028024D01*
Y1031410D01*
X949102Y1034795D01*
X938946D01*
X972802D02*
X959259D01*
Y1014482D01*
X972802D01*
X959259Y1024639D02*
X966030D01*
X999886Y1014482D02*
Y1028024D01*
X1006657Y1034795D01*
X1013428Y1028024D01*
Y1014482D01*
Y1024639D01*
X999886D01*
X1020200Y1014482D02*
Y1034795D01*
X1030356D01*
X1033742Y1031410D01*
Y1024639D01*
X1030356Y1021253D01*
X1020200D01*
X1040513Y1014482D02*
Y1034795D01*
X1050670D01*
X1054055Y1031410D01*
Y1024639D01*
X1050670Y1021253D01*
X1040513D01*
X1060826Y1014482D02*
Y1034795D01*
X1070983D01*
X1074369Y1031410D01*
Y1024639D01*
X1070983Y1021253D01*
X1060826D01*
X1067598D02*
X1074369Y1014482D01*
X1091296Y1034795D02*
X1084525D01*
X1081140Y1031410D01*
Y1017867D01*
X1084525Y1014482D01*
X1091296D01*
X1094682Y1017867D01*
Y1031410D01*
X1091296Y1034795D01*
X1101453D02*
X1114995Y1014482D01*
Y1034795D02*
X1101453Y1014482D01*
X1121767Y1034795D02*
X1128538D01*
X1125152D01*
Y1014482D01*
X1121767D01*
X1128538D01*
X1138694D02*
Y1034795D01*
X1145466Y1028024D01*
X1152237Y1034795D01*
Y1014482D01*
X1159008D02*
Y1028024D01*
X1165779Y1034795D01*
X1172550Y1028024D01*
Y1014482D01*
Y1024639D01*
X1159008D01*
X1179321Y1034795D02*
X1192864D01*
X1186092D01*
Y1014482D01*
X1213177Y1034795D02*
X1199635D01*
Y1014482D01*
X1213177D01*
X1199635Y1024639D02*
X1206406D01*
X1219948Y1034795D02*
Y1014482D01*
X1233490D01*
X1240262Y1034795D02*
Y1031410D01*
X1247033Y1024639D01*
X1253804Y1031410D01*
Y1034795D01*
X1247033Y1024639D02*
Y1014482D01*
X1280888D02*
X1287659D01*
X1284274D01*
Y1034795D01*
X1280888Y1031410D01*
X1297816Y1014482D02*
Y1017867D01*
X1301202D01*
Y1014482D01*
X1297816D01*
X1328286Y1034795D02*
X1321515Y1031410D01*
X1314744Y1024639D01*
Y1017867D01*
X1318130Y1014482D01*
X1324901D01*
X1328286Y1017867D01*
Y1021253D01*
X1324901Y1024639D01*
X1314744D01*
X1335058Y1014482D02*
Y1028024D01*
X1338443D01*
X1341829Y1024639D01*
Y1014482D01*
Y1024639D01*
X1345214Y1028024D01*
X1348600Y1024639D01*
Y1014482D01*
X1355371D02*
Y1028024D01*
X1358757D01*
X1362142Y1024639D01*
Y1014482D01*
Y1024639D01*
X1365528Y1028024D01*
X1368913Y1024639D01*
Y1014482D01*
X7914Y947442D02*
X-5628D01*
X7914Y960984D01*
Y964370D01*
X4528Y967755D01*
X-2243D01*
X-5628Y964370D01*
X14685Y947442D02*
Y950827D01*
X18071D01*
Y947442D01*
X14685D01*
X65469Y964370D02*
X62083Y967755D01*
X55312D01*
X51926Y964370D01*
Y950827D01*
X55312Y947442D01*
X62083D01*
X65469Y950827D01*
X82396Y967755D02*
X75625D01*
X72240Y964370D01*
Y950827D01*
X75625Y947442D01*
X82396D01*
X85782Y950827D01*
Y964370D01*
X82396Y967755D01*
X92553Y947442D02*
Y967755D01*
X99324Y960984D01*
X106096Y967755D01*
Y947442D01*
X112867D02*
Y967755D01*
X123023D01*
X126409Y964370D01*
Y957598D01*
X123023Y954213D01*
X112867D01*
X143337Y967755D02*
X136566D01*
X133180Y964370D01*
Y950827D01*
X136566Y947442D01*
X143337D01*
X146722Y950827D01*
Y964370D01*
X143337Y967755D01*
X153493Y947442D02*
Y967755D01*
X167036Y947442D01*
Y967755D01*
X187349D02*
X173807D01*
Y947442D01*
X187349D01*
X173807Y957598D02*
X180578D01*
X194120Y947442D02*
Y967755D01*
X207663Y947442D01*
Y967755D01*
X214434D02*
X227976D01*
X221205D01*
Y947442D01*
X255061Y967755D02*
X261832D01*
X258446D01*
Y947442D01*
X255061D01*
X261832D01*
X271988Y967755D02*
Y947442D01*
X282145D01*
X285531Y950827D01*
Y964370D01*
X282145Y967755D01*
X271988D01*
X305844D02*
X292302D01*
Y947442D01*
X305844D01*
X292302Y957598D02*
X299073D01*
X312615Y947442D02*
Y967755D01*
X326158Y947442D01*
Y967755D01*
X332929D02*
X346471D01*
X339700D01*
Y947442D01*
X353242Y960984D02*
X356628D01*
Y957598D01*
X353242D01*
Y960984D01*
Y950827D02*
X356628D01*
Y947442D01*
X353242D01*
Y950827D01*
X404026Y964370D02*
X400640Y967755D01*
X393869D01*
X390483Y964370D01*
Y950827D01*
X393869Y947442D01*
X400640D01*
X404026Y950827D01*
X420953Y967755D02*
X414182D01*
X410797Y964370D01*
Y950827D01*
X414182Y947442D01*
X420953D01*
X424339Y950827D01*
Y964370D01*
X420953Y967755D01*
X431110D02*
Y947442D01*
X444652D01*
X461580Y967755D02*
X454809D01*
X451424Y964370D01*
Y950827D01*
X454809Y947442D01*
X461580D01*
X464966Y950827D01*
Y964370D01*
X461580Y967755D01*
X471737D02*
Y950827D01*
X475123Y947442D01*
X481894D01*
X485279Y950827D01*
Y967755D01*
X492051Y947442D02*
Y967755D01*
X502207D01*
X505593Y964370D01*
Y957598D01*
X502207Y954213D01*
X492051D01*
X498822D02*
X505593Y947442D01*
X532677Y967755D02*
X546220D01*
X539449D01*
Y947442D01*
X563148Y967755D02*
X556376D01*
X552991Y964370D01*
Y950827D01*
X556376Y947442D01*
X563148D01*
X566533Y950827D01*
Y964370D01*
X563148Y967755D01*
X593618D02*
Y947442D01*
X603774D01*
X607160Y950827D01*
Y954213D01*
X603774Y957598D01*
X593618D01*
X603774D01*
X607160Y960984D01*
Y964370D01*
X603774Y967755D01*
X593618D01*
X627473D02*
X613931D01*
Y947442D01*
X627473D01*
X613931Y957598D02*
X620702D01*
X654558Y967755D02*
Y947442D01*
X661329Y954213D01*
X668100Y947442D01*
Y967755D01*
X674871D02*
Y947442D01*
Y957598D01*
X688414D01*
Y967755D01*
Y947442D01*
X695185Y967755D02*
X701956D01*
X698570D01*
Y947442D01*
X695185D01*
X701956D01*
X712113Y967755D02*
X725655D01*
X718884D01*
Y947442D01*
X745968Y967755D02*
X732426D01*
Y947442D01*
X745968D01*
X732426Y957598D02*
X739197D01*
X7352Y899951D02*
X-6190D01*
Y889794D01*
X581D01*
X-6190D01*
Y879638D01*
X14123D02*
X20894D01*
X17509D01*
Y893180D01*
X14123D01*
X31051Y879638D02*
X37822D01*
X34437D01*
Y899951D01*
X31051D01*
X58136Y879638D02*
X51365D01*
X47979Y883023D01*
Y889794D01*
X51365Y893180D01*
X58136D01*
X61521Y889794D01*
Y886409D01*
X47979D01*
X68292Y879638D02*
X78449D01*
X81835Y883023D01*
X78449Y886409D01*
X71678D01*
X68292Y889794D01*
X71678Y893180D01*
X81835D01*
X-6190Y863046D02*
X7352Y849503D01*
X-6190D02*
X7352Y863046D01*
X-6190Y856274D02*
X7352D01*
X581Y849503D02*
Y863046D01*
X14123Y846118D02*
Y849503D01*
X17509D01*
Y846118D01*
X14123D01*
X44594Y863046D02*
X41208Y866431D01*
X34437D01*
X31051Y863046D01*
Y849503D01*
X34437Y846118D01*
X41208D01*
X44594Y849503D01*
Y856274D01*
X37822D01*
X51365Y866431D02*
X64907D01*
X58136D01*
Y846118D01*
X81835Y866431D02*
X75064D01*
X71678Y863046D01*
Y849503D01*
X75064Y846118D01*
X81835D01*
X85220Y849503D01*
Y863046D01*
X81835Y866431D01*
X112305Y856274D02*
X125847D01*
X152932Y866431D02*
X166474D01*
X159703D01*
Y846118D01*
X176631D02*
X183402D01*
X186787Y849503D01*
Y856274D01*
X183402Y859660D01*
X176631D01*
X173245Y856274D01*
Y849503D01*
X176631Y846118D01*
X193559Y839347D02*
Y859660D01*
X203715D01*
X207101Y856274D01*
Y849503D01*
X203715Y846118D01*
X193559D01*
X244342Y866431D02*
X237571D01*
X234186Y863046D01*
Y849503D01*
X237571Y846118D01*
X244342D01*
X247728Y849503D01*
Y863046D01*
X244342Y866431D01*
X254499Y859660D02*
X261270Y846118D01*
X268041Y859660D01*
X284969Y846118D02*
X278198D01*
X274812Y849503D01*
Y856274D01*
X278198Y859660D01*
X284969D01*
X288355Y856274D01*
Y852889D01*
X274812D01*
X295126Y859660D02*
Y846118D01*
Y852889D01*
X298511Y856274D01*
X301897Y859660D01*
X305282D01*
X315439Y846118D02*
X322210D01*
X318825D01*
Y866431D01*
X315439D01*
X335753Y859660D02*
X342524D01*
X345909Y856274D01*
Y846118D01*
X335753D01*
X332367Y849503D01*
X335753Y852889D01*
X345909D01*
X352680Y859660D02*
Y849503D01*
X356066Y846118D01*
X366223D01*
Y842732D01*
X362837Y839347D01*
X359452D01*
X366223Y846118D02*
Y859660D01*
X-6190Y822754D02*
X7352Y809212D01*
X-6190D02*
X7352Y822754D01*
X-6190Y815983D02*
X7352D01*
X581Y809212D02*
Y822754D01*
X14123Y805826D02*
Y809212D01*
X17509D01*
Y805826D01*
X14123D01*
X44594Y822754D02*
X41208Y826140D01*
X34437D01*
X31051Y822754D01*
Y809212D01*
X34437Y805826D01*
X41208D01*
X44594Y809212D01*
Y815983D01*
X37822D01*
X51365Y826140D02*
X64907D01*
X58136D01*
Y805826D01*
X71678D02*
Y826140D01*
X81835D01*
X85220Y822754D01*
Y815983D01*
X81835Y812598D01*
X71678D01*
X112305Y815983D02*
X125847D01*
X152932Y826140D02*
X166474D01*
X159703D01*
Y805826D01*
X176631D02*
X183402D01*
X186787Y809212D01*
Y815983D01*
X183402Y819369D01*
X176631D01*
X173245Y815983D01*
Y809212D01*
X176631Y805826D01*
X193559Y799055D02*
Y819369D01*
X203715D01*
X207101Y815983D01*
Y809212D01*
X203715Y805826D01*
X193559D01*
X234186D02*
Y826140D01*
X244342D01*
X247728Y822754D01*
Y815983D01*
X244342Y812598D01*
X234186D01*
X257885Y819369D02*
X264656D01*
X268041Y815983D01*
Y805826D01*
X257885D01*
X254499Y809212D01*
X257885Y812598D01*
X268041D01*
X274812Y805826D02*
X284969D01*
X288355Y809212D01*
X284969Y812598D01*
X278198D01*
X274812Y815983D01*
X278198Y819369D01*
X288355D01*
X298511Y822754D02*
Y819369D01*
X295126D01*
X301897D01*
X298511D01*
Y809212D01*
X301897Y805826D01*
X322210D02*
X315439D01*
X312054Y809212D01*
Y815983D01*
X315439Y819369D01*
X322210D01*
X325596Y815983D01*
Y812598D01*
X312054D01*
X-6190Y782463D02*
X7352Y768921D01*
X-6190D02*
X7352Y782463D01*
X-6190Y775692D02*
X7352D01*
X581Y768921D02*
Y782463D01*
X14123Y765535D02*
Y768921D01*
X17509D01*
Y765535D01*
X14123D01*
X44594Y782463D02*
X41208Y785849D01*
X34437D01*
X31051Y782463D01*
Y768921D01*
X34437Y765535D01*
X41208D01*
X44594Y768921D01*
Y775692D01*
X37822D01*
X51365Y785849D02*
X64907D01*
X58136D01*
Y765535D01*
X85220Y782463D02*
X81835Y785849D01*
X75064D01*
X71678Y782463D01*
Y779078D01*
X75064Y775692D01*
X81835D01*
X85220Y772306D01*
Y768921D01*
X81835Y765535D01*
X75064D01*
X71678Y768921D01*
X112305Y775692D02*
X125847D01*
X152932Y785849D02*
X166474D01*
X159703D01*
Y765535D01*
X176631D02*
X183402D01*
X186787Y768921D01*
Y775692D01*
X183402Y779078D01*
X176631D01*
X173245Y775692D01*
Y768921D01*
X176631Y765535D01*
X193559Y758764D02*
Y779078D01*
X203715D01*
X207101Y775692D01*
Y768921D01*
X203715Y765535D01*
X193559D01*
X247728Y782463D02*
X244342Y785849D01*
X237571D01*
X234186Y782463D01*
Y779078D01*
X237571Y775692D01*
X244342D01*
X247728Y772306D01*
Y768921D01*
X244342Y765535D01*
X237571D01*
X234186Y768921D01*
X257885Y765535D02*
X264656D01*
X268041Y768921D01*
Y775692D01*
X264656Y779078D01*
X257885D01*
X254499Y775692D01*
Y768921D01*
X257885Y765535D01*
X274812D02*
X281583D01*
X278198D01*
Y785849D01*
X274812D01*
X305282D02*
Y765535D01*
X295126D01*
X291740Y768921D01*
Y775692D01*
X295126Y779078D01*
X305282D01*
X322210Y765535D02*
X315439D01*
X312054Y768921D01*
Y775692D01*
X315439Y779078D01*
X322210D01*
X325596Y775692D01*
Y772306D01*
X312054D01*
X332367Y779078D02*
Y765535D01*
Y772306D01*
X335753Y775692D01*
X339138Y779078D01*
X342524D01*
X-6190Y742172D02*
X7352Y728630D01*
X-6190D02*
X7352Y742172D01*
X-6190Y735401D02*
X7352D01*
X581Y728630D02*
Y742172D01*
X14123Y725244D02*
Y728630D01*
X17509D01*
Y725244D01*
X14123D01*
X44594Y742172D02*
X41208Y745557D01*
X34437D01*
X31051Y742172D01*
Y728630D01*
X34437Y725244D01*
X41208D01*
X44594Y728630D01*
Y735401D01*
X37822D01*
X51365Y745557D02*
X64907D01*
X58136D01*
Y725244D01*
X71678Y745557D02*
Y725244D01*
X85220D01*
X112305Y735401D02*
X125847D01*
X152932Y745557D02*
Y725244D01*
X166474D01*
X173245D02*
X180016D01*
X176631D01*
Y745557D01*
X173245Y742172D01*
X217258Y725244D02*
X210487Y732015D01*
Y738786D01*
X217258Y745557D01*
X227414Y725244D02*
Y745557D01*
X237571D01*
X240957Y742172D01*
Y735401D01*
X237571Y732015D01*
X227414D01*
X251113Y725244D02*
X257885D01*
X261270Y728630D01*
Y735401D01*
X257885Y738786D01*
X251113D01*
X247728Y735401D01*
Y728630D01*
X251113Y725244D01*
X268041D02*
X278198D01*
X281583Y728630D01*
X278198Y732015D01*
X271427D01*
X268041Y735401D01*
X271427Y738786D01*
X281583D01*
X288355Y725244D02*
X295126D01*
X291740D01*
Y738786D01*
X288355D01*
X308668Y742172D02*
Y738786D01*
X305282D01*
X312054D01*
X308668D01*
Y728630D01*
X312054Y725244D01*
X322210D02*
X328982D01*
X325596D01*
Y738786D01*
X322210D01*
X339138D02*
X345909Y725244D01*
X352681Y738786D01*
X369608Y725244D02*
X362837D01*
X359452Y728630D01*
Y735401D01*
X362837Y738786D01*
X369608D01*
X372994Y735401D01*
Y732015D01*
X359452D01*
X379765Y725244D02*
X386536Y732015D01*
Y738786D01*
X379765Y745557D01*
X-6190Y708652D02*
X7352Y695109D01*
X-6190D02*
X7352Y708652D01*
X-6190Y701881D02*
X7352D01*
X581Y695109D02*
Y708652D01*
X14123Y691724D02*
Y695109D01*
X17509D01*
Y691724D01*
X14123D01*
X44594Y708652D02*
X41208Y712037D01*
X34437D01*
X31051Y708652D01*
Y695109D01*
X34437Y691724D01*
X41208D01*
X44594Y695109D01*
Y701881D01*
X37822D01*
X51365Y712037D02*
Y691724D01*
X61521D01*
X64907Y695109D01*
Y698495D01*
X61521Y701881D01*
X51365D01*
X61521D01*
X64907Y705266D01*
Y708652D01*
X61521Y712037D01*
X51365D01*
X71678D02*
Y691724D01*
X85220D01*
X112305Y701881D02*
X125847D01*
X152932Y712037D02*
Y691724D01*
X166474D01*
X186787D02*
X173245D01*
X186787Y705266D01*
Y708652D01*
X183402Y712037D01*
X176631D01*
X173245Y708652D01*
X220643Y691724D02*
X213872Y698495D01*
Y705266D01*
X220643Y712037D01*
X230800Y691724D02*
Y712037D01*
X240957D01*
X244342Y708652D01*
Y701881D01*
X240957Y698495D01*
X230800D01*
X254499Y691724D02*
X261270D01*
X264656Y695109D01*
Y701881D01*
X261270Y705266D01*
X254499D01*
X251113Y701881D01*
Y695109D01*
X254499Y691724D01*
X271427D02*
X281583D01*
X284969Y695109D01*
X281583Y698495D01*
X274812D01*
X271427Y701881D01*
X274812Y705266D01*
X284969D01*
X291740Y691724D02*
X298511D01*
X295126D01*
Y705266D01*
X291740D01*
X312054Y708652D02*
Y705266D01*
X308668D01*
X315439D01*
X312054D01*
Y695109D01*
X315439Y691724D01*
X325596D02*
X332367D01*
X328982D01*
Y705266D01*
X325596D01*
X342524D02*
X349295Y691724D01*
X356066Y705266D01*
X372994Y691724D02*
X366223D01*
X362837Y695109D01*
Y701881D01*
X366223Y705266D01*
X372994D01*
X376380Y701881D01*
Y698495D01*
X362837D01*
X383151Y691724D02*
X389922Y698495D01*
Y705266D01*
X383151Y712037D01*
X-6190Y675132D02*
X7352Y661589D01*
X-6190D02*
X7352Y675132D01*
X-6190Y668361D02*
X7352D01*
X581Y661589D02*
Y675132D01*
X14123Y658204D02*
Y661589D01*
X17509D01*
Y658204D01*
X14123D01*
X44594Y675132D02*
X41208Y678517D01*
X34437D01*
X31051Y675132D01*
Y661589D01*
X34437Y658204D01*
X41208D01*
X44594Y661589D01*
Y668361D01*
X37822D01*
X51365Y678517D02*
Y658204D01*
X61521D01*
X64907Y661589D01*
Y664975D01*
X61521Y668361D01*
X51365D01*
X61521D01*
X64907Y671746D01*
Y675132D01*
X61521Y678517D01*
X51365D01*
X85220Y675132D02*
X81835Y678517D01*
X75064D01*
X71678Y675132D01*
Y671746D01*
X75064Y668361D01*
X81835D01*
X85220Y664975D01*
Y661589D01*
X81835Y658204D01*
X75064D01*
X71678Y661589D01*
X112305Y668361D02*
X125847D01*
X152932Y678517D02*
Y658204D01*
X163088D01*
X166474Y661589D01*
Y664975D01*
X163088Y668361D01*
X152932D01*
X163088D01*
X166474Y671746D01*
Y675132D01*
X163088Y678517D01*
X152932D01*
X176631Y658204D02*
X183402D01*
X186787Y661589D01*
Y668361D01*
X183402Y671746D01*
X176631D01*
X173245Y668361D01*
Y661589D01*
X176631Y658204D01*
X196944Y675132D02*
Y671746D01*
X193559D01*
X200330D01*
X196944D01*
Y661589D01*
X200330Y658204D01*
X213872Y675132D02*
Y671746D01*
X210487D01*
X217258D01*
X213872D01*
Y661589D01*
X217258Y658204D01*
X230800D02*
X237571D01*
X240957Y661589D01*
Y668361D01*
X237571Y671746D01*
X230800D01*
X227414Y668361D01*
Y661589D01*
X230800Y658204D01*
X247728D02*
Y671746D01*
X251113D01*
X254499Y668361D01*
Y658204D01*
Y668361D01*
X257885Y671746D01*
X261270Y668361D01*
Y658204D01*
X301897Y675132D02*
X298511Y678517D01*
X291740D01*
X288355Y675132D01*
Y671746D01*
X291740Y668361D01*
X298511D01*
X301897Y664975D01*
Y661589D01*
X298511Y658204D01*
X291740D01*
X288355Y661589D01*
X312054Y658204D02*
X318825D01*
X322210Y661589D01*
Y668361D01*
X318825Y671746D01*
X312054D01*
X308668Y668361D01*
Y661589D01*
X312054Y658204D01*
X328982D02*
X335753D01*
X332367D01*
Y678517D01*
X328982D01*
X359452D02*
Y658204D01*
X349295D01*
X345909Y661589D01*
Y668361D01*
X349295Y671746D01*
X359452D01*
X376380Y658204D02*
X369608D01*
X366223Y661589D01*
Y668361D01*
X369608Y671746D01*
X376380D01*
X379765Y668361D01*
Y664975D01*
X366223D01*
X386536Y671746D02*
Y658204D01*
Y664975D01*
X389922Y668361D01*
X393307Y671746D01*
X396693D01*
X-6190Y641611D02*
X7352Y628069D01*
X-6190D02*
X7352Y641611D01*
X-6190Y634840D02*
X7352D01*
X581Y628069D02*
Y641611D01*
X14123Y624684D02*
Y628069D01*
X17509D01*
Y624684D01*
X14123D01*
X44594Y641611D02*
X41208Y644997D01*
X34437D01*
X31051Y641611D01*
Y628069D01*
X34437Y624684D01*
X41208D01*
X44594Y628069D01*
Y634840D01*
X37822D01*
X51365Y644997D02*
Y624684D01*
X61521D01*
X64907Y628069D01*
Y631455D01*
X61521Y634840D01*
X51365D01*
X61521D01*
X64907Y638226D01*
Y641611D01*
X61521Y644997D01*
X51365D01*
X81835D02*
X75064D01*
X71678Y641611D01*
Y628069D01*
X75064Y624684D01*
X81835D01*
X85220Y628069D01*
Y641611D01*
X81835Y644997D01*
X112305Y634840D02*
X125847D01*
X152932Y644997D02*
Y624684D01*
X163088D01*
X166474Y628069D01*
Y631455D01*
X163088Y634840D01*
X152932D01*
X163088D01*
X166474Y638226D01*
Y641611D01*
X163088Y644997D01*
X152932D01*
X176631Y624684D02*
X183402D01*
X186787Y628069D01*
Y634840D01*
X183402Y638226D01*
X176631D01*
X173245Y634840D01*
Y628069D01*
X176631Y624684D01*
X196944Y641611D02*
Y638226D01*
X193559D01*
X200330D01*
X196944D01*
Y628069D01*
X200330Y624684D01*
X213872Y641611D02*
Y638226D01*
X210487D01*
X217258D01*
X213872D01*
Y628069D01*
X217258Y624684D01*
X230800D02*
X237571D01*
X240957Y628069D01*
Y634840D01*
X237571Y638226D01*
X230800D01*
X227414Y634840D01*
Y628069D01*
X230800Y624684D01*
X247728D02*
Y638226D01*
X251113D01*
X254499Y634840D01*
Y624684D01*
Y634840D01*
X257885Y638226D01*
X261270Y634840D01*
Y624684D01*
X298511Y644997D02*
X291740D01*
X288355Y641611D01*
Y628069D01*
X291740Y624684D01*
X298511D01*
X301897Y628069D01*
Y641611D01*
X298511Y644997D01*
X308668Y638226D02*
X315439Y624684D01*
X322210Y638226D01*
X339138Y624684D02*
X332367D01*
X328982Y628069D01*
Y634840D01*
X332367Y638226D01*
X339138D01*
X342524Y634840D01*
Y631455D01*
X328982D01*
X349295Y638226D02*
Y624684D01*
Y631455D01*
X352680Y634840D01*
X356066Y638226D01*
X359452D01*
X369608Y624684D02*
X376379D01*
X372994D01*
Y644997D01*
X369608D01*
X389922Y638226D02*
X396693D01*
X400078Y634840D01*
Y624684D01*
X389922D01*
X386536Y628069D01*
X389922Y631455D01*
X400078D01*
X406850Y638226D02*
Y628069D01*
X410235Y624684D01*
X420392D01*
Y621298D01*
X417006Y617913D01*
X413621D01*
X420392Y624684D02*
Y638226D01*
X-6190Y601320D02*
X7352Y587778D01*
X-6190D02*
X7352Y601320D01*
X-6190Y594549D02*
X7352D01*
X581Y587778D02*
Y601320D01*
X14123Y584393D02*
Y587778D01*
X17509D01*
Y584393D01*
X14123D01*
X44594Y601320D02*
X41208Y604706D01*
X34437D01*
X31051Y601320D01*
Y587778D01*
X34437Y584393D01*
X41208D01*
X44594Y587778D01*
Y594549D01*
X37822D01*
X51365Y584393D02*
Y604706D01*
X58136Y597935D01*
X64907Y604706D01*
Y584393D01*
X85220D02*
X71678D01*
X85220Y597935D01*
Y601320D01*
X81835Y604706D01*
X75064D01*
X71678Y601320D01*
X112305Y594549D02*
X125847D01*
X152932Y584393D02*
Y604706D01*
X159703Y597935D01*
X166474Y604706D01*
Y584393D01*
X183402D02*
X176631D01*
X173245Y587778D01*
Y594549D01*
X176631Y597935D01*
X183402D01*
X186787Y594549D01*
Y591164D01*
X173245D01*
X207101Y597935D02*
X196944D01*
X193559Y594549D01*
Y587778D01*
X196944Y584393D01*
X207101D01*
X213872Y604706D02*
Y584393D01*
Y594549D01*
X217258Y597935D01*
X224029D01*
X227414Y594549D01*
Y584393D01*
X237571Y597935D02*
X244342D01*
X247728Y594549D01*
Y584393D01*
X237571D01*
X234186Y587778D01*
X237571Y591164D01*
X247728D01*
X254499Y584393D02*
Y597935D01*
X264656D01*
X268041Y594549D01*
Y584393D01*
X274812D02*
X281583D01*
X278198D01*
Y597935D01*
X274812D01*
X305282D02*
X295126D01*
X291740Y594549D01*
Y587778D01*
X295126Y584393D01*
X305282D01*
X315439Y597935D02*
X322210D01*
X325596Y594549D01*
Y584393D01*
X315439D01*
X312054Y587778D01*
X315439Y591164D01*
X325596D01*
X332367Y584393D02*
X339138D01*
X335753D01*
Y604706D01*
X332367D01*
X369608D02*
Y584393D01*
X379765D01*
X383151Y587778D01*
Y601320D01*
X379765Y604706D01*
X369608D01*
X389922Y597935D02*
Y584393D01*
Y591164D01*
X393307Y594549D01*
X396693Y597935D01*
X400078D01*
X413621D02*
X420392D01*
X423777Y594549D01*
Y584393D01*
X413621D01*
X410235Y587778D01*
X413621Y591164D01*
X423777D01*
X430549Y597935D02*
Y587778D01*
X433934Y584393D01*
X437320Y587778D01*
X440705Y584393D01*
X444091Y587778D01*
Y597935D01*
X450862Y584393D02*
X457633D01*
X454248D01*
Y597935D01*
X450862D01*
X467790Y584393D02*
Y597935D01*
X477947D01*
X481332Y594549D01*
Y584393D01*
X494874Y577621D02*
X498260D01*
X501646Y581007D01*
Y597935D01*
X491489D01*
X488103Y594549D01*
Y587778D01*
X491489Y584393D01*
X501646D01*
X-6190Y561029D02*
X7352Y547487D01*
X-6190D02*
X7352Y561029D01*
X-6190Y554258D02*
X7352D01*
X581Y547487D02*
Y561029D01*
X14123Y544101D02*
Y547487D01*
X17509D01*
Y544101D01*
X14123D01*
X44594Y561029D02*
X41208Y564415D01*
X34437D01*
X31051Y561029D01*
Y547487D01*
X34437Y544101D01*
X41208D01*
X44594Y547487D01*
Y554258D01*
X37822D01*
X51365Y544101D02*
Y564415D01*
X58136Y557644D01*
X64907Y564415D01*
Y544101D01*
X71678Y561029D02*
X75064Y564415D01*
X81835D01*
X85220Y561029D01*
Y557644D01*
X81835Y554258D01*
X78449D01*
X81835D01*
X85220Y550872D01*
Y547487D01*
X81835Y544101D01*
X75064D01*
X71678Y547487D01*
X112305Y554258D02*
X125847D01*
X152932Y544101D02*
Y564415D01*
X159703Y557644D01*
X166474Y564415D01*
Y544101D01*
X176631Y557644D02*
X183402D01*
X186787Y554258D01*
Y544101D01*
X176631D01*
X173245Y547487D01*
X176631Y550872D01*
X186787D01*
X193559Y544101D02*
Y557644D01*
X203715D01*
X207101Y554258D01*
Y544101D01*
X213872Y557644D02*
Y547487D01*
X217258Y544101D01*
X227414D01*
Y557644D01*
X237571Y544101D02*
Y561029D01*
Y554258D01*
X234186D01*
X240957D01*
X237571D01*
Y561029D01*
X240957Y564415D01*
X254499Y557644D02*
X261270D01*
X264656Y554258D01*
Y544101D01*
X254499D01*
X251113Y547487D01*
X254499Y550872D01*
X264656D01*
X284969Y557644D02*
X274812D01*
X271427Y554258D01*
Y547487D01*
X274812Y544101D01*
X284969D01*
X295126Y561029D02*
Y557644D01*
X291740D01*
X298511D01*
X295126D01*
Y547487D01*
X298511Y544101D01*
X308668Y557644D02*
Y547487D01*
X312054Y544101D01*
X322210D01*
Y557644D01*
X328982D02*
Y544101D01*
Y550872D01*
X332367Y554258D01*
X335753Y557644D01*
X339138D01*
X349295Y544101D02*
X356066D01*
X352680D01*
Y557644D01*
X349295D01*
X366223Y544101D02*
Y557644D01*
X376380D01*
X379765Y554258D01*
Y544101D01*
X393307Y537330D02*
X396693D01*
X400078Y540716D01*
Y557644D01*
X389922D01*
X386536Y554258D01*
Y547487D01*
X389922Y544101D01*
X400078D01*
X427163D02*
Y564415D01*
X440705Y544101D01*
Y564415D01*
X450862Y544101D02*
X457633D01*
X461019Y547487D01*
Y554258D01*
X457633Y557644D01*
X450862D01*
X447476Y554258D01*
Y547487D01*
X450862Y544101D01*
X471175Y561029D02*
Y557644D01*
X467790D01*
X474561D01*
X471175D01*
Y547487D01*
X474561Y544101D01*
X494874D02*
X488103D01*
X484718Y547487D01*
Y554258D01*
X488103Y557644D01*
X494874D01*
X498260Y554258D01*
Y550872D01*
X484718D01*
X505031Y544101D02*
X515188D01*
X518573Y547487D01*
X515188Y550872D01*
X508417D01*
X505031Y554258D01*
X508417Y557644D01*
X518573D01*
X-6190Y520738D02*
X7352Y507196D01*
X-6190D02*
X7352Y520738D01*
X-6190Y513967D02*
X7352D01*
X581Y507196D02*
Y520738D01*
X14123Y503810D02*
Y507196D01*
X17509D01*
Y503810D01*
X14123D01*
X44594Y520738D02*
X41208Y524123D01*
X34437D01*
X31051Y520738D01*
Y507196D01*
X34437Y503810D01*
X41208D01*
X44594Y507196D01*
Y513967D01*
X37822D01*
X51365Y503810D02*
Y524123D01*
X58136Y517352D01*
X64907Y524123D01*
Y503810D01*
X85220D02*
X71678D01*
X85220Y517352D01*
Y520738D01*
X81835Y524123D01*
X75064D01*
X71678Y520738D01*
X91992D02*
X95377Y524123D01*
X102148D01*
X105534Y520738D01*
Y517352D01*
X102148Y513967D01*
X105534Y510581D01*
Y507196D01*
X102148Y503810D01*
X95377D01*
X91992Y507196D01*
Y510581D01*
X95377Y513967D01*
X91992Y517352D01*
Y520738D01*
X95377Y513967D02*
X102148D01*
X132618D02*
X146161D01*
X173245Y524123D02*
Y503810D01*
X183402D01*
X186787Y507196D01*
Y510581D01*
X183402Y513967D01*
X173245D01*
X183402D01*
X186787Y517352D01*
Y520738D01*
X183402Y524123D01*
X173245D01*
X196944Y503810D02*
X203715D01*
X207101Y507196D01*
Y513967D01*
X203715Y517352D01*
X196944D01*
X193559Y513967D01*
Y507196D01*
X196944Y503810D01*
X217258Y517352D02*
X224029D01*
X227414Y513967D01*
Y503810D01*
X217258D01*
X213872Y507196D01*
X217258Y510581D01*
X227414D01*
X234186Y517352D02*
Y503810D01*
Y510581D01*
X237571Y513967D01*
X240957Y517352D01*
X244342D01*
X268041Y524123D02*
Y503810D01*
X257885D01*
X254499Y507196D01*
Y513967D01*
X257885Y517352D01*
X268041D01*
X305282Y524123D02*
X298511D01*
X295126Y520738D01*
Y507196D01*
X298511Y503810D01*
X305282D01*
X308668Y507196D01*
Y520738D01*
X305282Y524123D01*
X315439Y517352D02*
Y507196D01*
X318825Y503810D01*
X328982D01*
Y517352D01*
X339138Y520738D02*
Y517352D01*
X335753D01*
X342524D01*
X339138D01*
Y507196D01*
X342524Y503810D01*
X352680D02*
X359452D01*
X356066D01*
Y524123D01*
X352680D01*
X369608Y503810D02*
X376379D01*
X372994D01*
Y517352D01*
X369608D01*
X386536Y503810D02*
Y517352D01*
X396693D01*
X400078Y513967D01*
Y503810D01*
X417006D02*
X410235D01*
X406850Y507196D01*
Y513967D01*
X410235Y517352D01*
X417006D01*
X420392Y513967D01*
Y510581D01*
X406850D01*
D77*
X-18650Y-218650D02*
Y-172945D01*
X-3415Y-188180D01*
X11820Y-172945D01*
Y-218650D01*
X27055D02*
Y-188180D01*
X42290Y-172945D01*
X57525Y-188180D01*
Y-218650D01*
Y-195797D01*
X27055D01*
X72760Y-172945D02*
X103231Y-218650D01*
Y-172945D02*
X72760Y-218650D01*
X164171D02*
X179406D01*
X171788D01*
Y-172945D01*
X164171Y-180562D01*
X225111Y-218650D02*
Y-172945D01*
X202258Y-195797D01*
X232729D01*
X247964Y-180562D02*
X255581Y-172945D01*
X270816D01*
X278434Y-180562D01*
Y-188180D01*
X270816Y-195797D01*
X278434Y-203415D01*
Y-211033D01*
X270816Y-218650D01*
X255581D01*
X247964Y-211033D01*
Y-203415D01*
X255581Y-195797D01*
X247964Y-188180D01*
Y-180562D01*
X255581Y-195797D02*
X270816D01*
X293669Y-172945D02*
X324139D01*
Y-180562D01*
X293669Y-211033D01*
Y-218650D01*
X339374D02*
X354609D01*
X346992D01*
Y-172945D01*
X339374Y-180562D01*
X423167Y-172945D02*
Y-218650D01*
X446020D01*
X453637Y-211033D01*
Y-180562D01*
X446020Y-172945D01*
X423167D01*
X499342Y-180562D02*
X491725Y-172945D01*
X476490D01*
X468872Y-180562D01*
Y-211033D01*
X476490Y-218650D01*
X491725D01*
X499342Y-211033D01*
X560283Y-218650D02*
Y-172945D01*
X575518Y-188180D01*
X590753Y-172945D01*
Y-218650D01*
X628841Y-172945D02*
X613605D01*
X605988Y-180562D01*
Y-211033D01*
X613605Y-218650D01*
X628841D01*
X636458Y-211033D01*
Y-180562D01*
X628841Y-172945D01*
X651693D02*
X682163D01*
X666928D01*
Y-218650D01*
X720251Y-172945D02*
X705016D01*
X697398Y-180562D01*
Y-211033D01*
X705016Y-218650D01*
X720251D01*
X727868Y-211033D01*
Y-180562D01*
X720251Y-172945D01*
X743104Y-218650D02*
Y-172945D01*
X765956D01*
X773574Y-180562D01*
Y-195797D01*
X765956Y-203415D01*
X743104D01*
X758339D02*
X773574Y-218650D01*
X834514Y-172945D02*
Y-218650D01*
X857367D01*
X864984Y-211033D01*
Y-180562D01*
X857367Y-172945D01*
X834514D01*
X880219Y-218650D02*
Y-172945D01*
X903072D01*
X910689Y-180562D01*
Y-195797D01*
X903072Y-203415D01*
X880219D01*
X895454D02*
X910689Y-218650D01*
X925925Y-172945D02*
X941160D01*
X933542D01*
Y-218650D01*
X925925D01*
X941160D01*
X964012Y-172945D02*
Y-203415D01*
X979247Y-218650D01*
X994482Y-203415D01*
Y-172945D01*
X1040188D02*
X1009717D01*
Y-218650D01*
X1040188D01*
X1009717Y-195797D02*
X1024952D01*
X1055423Y-218650D02*
Y-172945D01*
X1078275D01*
X1085893Y-180562D01*
Y-195797D01*
X1078275Y-203415D01*
X1055423D01*
X1070658D02*
X1085893Y-218650D01*
D78*
X-20936Y-243852D02*
Y-264165D01*
X-10779D01*
X-7394Y-260779D01*
Y-247237D01*
X-10779Y-243852D01*
X-20936D01*
X-623Y-250623D02*
Y-264165D01*
Y-257394D01*
X2763Y-254008D01*
X6149Y-250623D01*
X9534D01*
X23076D02*
X29848D01*
X33233Y-254008D01*
Y-264165D01*
X23076D01*
X19691Y-260779D01*
X23076Y-257394D01*
X33233D01*
X40004Y-250623D02*
Y-260779D01*
X43390Y-264165D01*
X46775Y-260779D01*
X50161Y-264165D01*
X53547Y-260779D01*
Y-250623D01*
X60318Y-264165D02*
Y-250623D01*
X70474D01*
X73860Y-254008D01*
Y-264165D01*
X100944Y-243852D02*
Y-264165D01*
X111101D01*
X114487Y-260779D01*
Y-257394D01*
Y-254008D01*
X111101Y-250623D01*
X100944D01*
X121258D02*
Y-260779D01*
X124643Y-264165D01*
X134800D01*
Y-267550D01*
X131415Y-270936D01*
X128029D01*
X134800Y-264165D02*
Y-250623D01*
X175427Y-247237D02*
X172041Y-243852D01*
X165270D01*
X161885Y-247237D01*
Y-250623D01*
X165270Y-254008D01*
X172041D01*
X175427Y-257394D01*
Y-260779D01*
X172041Y-264165D01*
X165270D01*
X161885Y-260779D01*
X185584Y-247237D02*
Y-250623D01*
X182198D01*
X188969D01*
X185584D01*
Y-260779D01*
X188969Y-264165D01*
X209283D02*
X202512D01*
X199126Y-260779D01*
Y-254008D01*
X202512Y-250623D01*
X209283D01*
X212668Y-254008D01*
Y-257394D01*
X199126D01*
X219440Y-250623D02*
X226211Y-264165D01*
X232982Y-250623D01*
X249910Y-264165D02*
X243139D01*
X239753Y-260779D01*
Y-254008D01*
X243139Y-250623D01*
X249910D01*
X253295Y-254008D01*
Y-257394D01*
X239753D01*
X260066Y-264165D02*
Y-250623D01*
X270223D01*
X273609Y-254008D01*
Y-264165D01*
X314235Y-247237D02*
X310850Y-243852D01*
X304079D01*
X300693Y-247237D01*
Y-260779D01*
X304079Y-264165D01*
X310850D01*
X314235Y-260779D01*
Y-254008D01*
X307464D01*
X321007Y-264165D02*
X327778D01*
X324392D01*
Y-250623D01*
X321007D01*
X337934Y-264165D02*
X344706D01*
X341320D01*
Y-243852D01*
X337934D01*
X354862D02*
Y-264165D01*
X365019D01*
X368405Y-260779D01*
Y-257394D01*
Y-254008D01*
X365019Y-250623D01*
X354862D01*
X385332Y-264165D02*
X378561D01*
X375176Y-260779D01*
Y-254008D01*
X378561Y-250623D01*
X385332D01*
X388718Y-254008D01*
Y-257394D01*
X375176D01*
X395489Y-250623D02*
Y-264165D01*
Y-257394D01*
X398875Y-254008D01*
X402260Y-250623D01*
X405646D01*
X419188Y-247237D02*
Y-250623D01*
X415803D01*
X422574D01*
X419188D01*
Y-260779D01*
X422574Y-264165D01*
M02*
