G04*
G04 #@! TF.GenerationSoftware,Altium Limited,Altium Designer,20.2.4 (192)*
G04*
G04 Layer_Physical_Order=2*
G04 Layer_Color=16711680*
%FSLAX44Y44*%
%MOMM*%
G71*
G04*
G04 #@! TF.SameCoordinates,784D42F2-C5A6-4340-B429-8165139C0F3B*
G04*
G04*
G04 #@! TF.FilePolarity,Positive*
G04*
G01*
G75*
%ADD10C,0.5000*%
%ADD57C,1.9000*%
%ADD62C,0.3556*%
%ADD63C,0.3810*%
%ADD64R,1.9000X1.9000*%
%ADD65O,2.0000X1.6000*%
%ADD66R,2.0000X1.6000*%
%ADD67C,7.4000*%
%ADD68O,4.6000X2.5000*%
%ADD69C,1.7000*%
%ADD70R,1.7000X1.7000*%
%ADD71C,3.2000*%
%ADD72C,0.6000*%
%ADD73C,1.2000*%
%ADD74C,2.0000*%
G36*
X800000Y0D02*
X0D01*
Y350000D01*
X800000D01*
Y0D01*
D02*
G37*
%LPC*%
G36*
X465000Y340400D02*
X439000D01*
Y318400D01*
X465000D01*
Y340400D01*
D02*
G37*
G36*
X454000Y315095D02*
X450000D01*
X447128Y314717D01*
X444453Y313608D01*
X442155Y311845D01*
X440392Y309548D01*
X439283Y306872D01*
X438905Y304000D01*
X439283Y301128D01*
X440392Y298452D01*
X442155Y296155D01*
X444453Y294391D01*
X447128Y293283D01*
X450000Y292905D01*
X454000D01*
X456872Y293283D01*
X459548Y294391D01*
X461845Y296155D01*
X463609Y298452D01*
X464717Y301128D01*
X465095Y304000D01*
X464717Y306872D01*
X463609Y309548D01*
X461845Y311845D01*
X459548Y313608D01*
X456872Y314717D01*
X454000Y315095D01*
D02*
G37*
G36*
X567000Y347059D02*
X567000Y347059D01*
X542000D01*
X540830Y346826D01*
X539837Y346163D01*
X526837Y333163D01*
X526174Y332170D01*
X525941Y331000D01*
X525941Y331000D01*
Y307267D01*
X515083Y296409D01*
X514916Y296158D01*
X514703Y295945D01*
X514587Y295667D01*
X514420Y295417D01*
X514361Y295121D01*
X514265Y294890D01*
X513601Y293895D01*
X512607Y293231D01*
X512375Y293135D01*
X512080Y293076D01*
X511829Y292909D01*
X511551Y292793D01*
X511338Y292580D01*
X511087Y292413D01*
X483733Y265059D01*
X457000D01*
X457000Y265059D01*
X455829Y264826D01*
X454837Y264163D01*
X454837Y264163D01*
X452837Y262163D01*
X452837Y262163D01*
X452174Y261171D01*
X451941Y260000D01*
X451941Y260000D01*
Y221000D01*
X451941Y221000D01*
X452174Y219830D01*
X452837Y218837D01*
X452837Y218837D01*
X453837Y217837D01*
X454829Y217174D01*
X456000Y216941D01*
X456000Y216941D01*
X469733D01*
X520837Y165837D01*
X521829Y165174D01*
X523000Y164941D01*
X523000Y164941D01*
X570000D01*
X570000Y164941D01*
X571171Y165174D01*
X572163Y165837D01*
X572163Y165837D01*
X576163Y169837D01*
X576826Y170830D01*
X577059Y172000D01*
X577059Y172000D01*
Y220000D01*
X576826Y221171D01*
X576163Y222163D01*
X569163Y229163D01*
X568171Y229826D01*
X567000Y230059D01*
X567000Y230059D01*
X554000D01*
X552830Y229826D01*
X551837Y229163D01*
X546251Y223577D01*
X545078Y224063D01*
Y263000D01*
X544768Y265350D01*
X543861Y267539D01*
X542419Y269419D01*
X540539Y270861D01*
X539260Y271391D01*
X538962Y272889D01*
X564379Y298307D01*
X565463Y299929D01*
X565710Y301168D01*
X566979Y301083D01*
X566980Y301083D01*
X567351Y299219D01*
X568407Y297638D01*
X570490Y295555D01*
X570490Y295555D01*
X572070Y294499D01*
X573934Y294128D01*
X573935Y294128D01*
X654482D01*
X660574Y288036D01*
X660848Y286659D01*
X662174Y284674D01*
X664159Y283348D01*
X666500Y282882D01*
X668841Y283348D01*
X670826Y284674D01*
X672152Y286659D01*
X672618Y289000D01*
X672152Y291341D01*
X670826Y293326D01*
X668841Y294652D01*
X667464Y294926D01*
X659945Y302445D01*
X658364Y303501D01*
X656500Y303872D01*
X656500Y303872D01*
X576723D01*
Y317008D01*
X577503Y318176D01*
X577969Y320517D01*
X577503Y322858D01*
X576177Y324843D01*
X574192Y326169D01*
X572960Y326414D01*
X572032Y327867D01*
X572059Y328000D01*
X572059Y328000D01*
Y342000D01*
X571826Y343171D01*
X571163Y344163D01*
X569163Y346163D01*
X568171Y346826D01*
X567000Y347059D01*
D02*
G37*
G36*
X755500Y212500D02*
X730500D01*
Y187500D01*
X755500D01*
Y212500D01*
D02*
G37*
G36*
X72500Y167500D02*
X47500D01*
Y142500D01*
X72500D01*
Y167500D01*
D02*
G37*
G36*
X743000Y162608D02*
X739737Y162178D01*
X736696Y160919D01*
X734085Y158915D01*
X732081Y156304D01*
X730822Y153263D01*
X730392Y150000D01*
X730822Y146737D01*
X732081Y143696D01*
X734085Y141085D01*
X736696Y139081D01*
X739737Y137822D01*
X743000Y137392D01*
X746263Y137822D01*
X749304Y139081D01*
X751915Y141085D01*
X753919Y143696D01*
X755178Y146737D01*
X755608Y150000D01*
X755178Y153263D01*
X753919Y156304D01*
X751915Y158915D01*
X749304Y160919D01*
X746263Y162178D01*
X743000Y162608D01*
D02*
G37*
G36*
X170500Y125575D02*
X149500D01*
X146461Y125276D01*
X143540Y124389D01*
X140847Y122950D01*
X138487Y121013D01*
X136550Y118653D01*
X135111Y115960D01*
X134224Y113039D01*
X133925Y110000D01*
X134224Y106961D01*
X135111Y104040D01*
X136550Y101347D01*
X138487Y98987D01*
X140847Y97050D01*
X143540Y95611D01*
X146461Y94724D01*
X149500Y94425D01*
X170500D01*
X173538Y94724D01*
X176460Y95611D01*
X179153Y97050D01*
X181513Y98987D01*
X183450Y101347D01*
X184889Y104040D01*
X185776Y106961D01*
X186075Y110000D01*
X185776Y113039D01*
X184889Y115960D01*
X183450Y118653D01*
X181513Y121013D01*
X179153Y122950D01*
X176460Y124389D01*
X173538Y125276D01*
X170500Y125575D01*
D02*
G37*
G36*
X230000Y102599D02*
X226998Y102204D01*
X224200Y101045D01*
X221798Y99202D01*
X219955Y96800D01*
X218796Y94002D01*
X218401Y91000D01*
X218796Y87998D01*
X219955Y85200D01*
X221798Y82798D01*
X224200Y80955D01*
X226998Y79796D01*
X230000Y79401D01*
X233002Y79796D01*
X235800Y80955D01*
X238202Y82798D01*
X240045Y85200D01*
X241204Y87998D01*
X241599Y91000D01*
X241204Y94002D01*
X240045Y96800D01*
X238202Y99202D01*
X235800Y101045D01*
X233002Y102204D01*
X230000Y102599D01*
D02*
G37*
G36*
X434000Y155112D02*
X434000Y155112D01*
X313000D01*
X309606Y154665D01*
X306444Y153356D01*
X303728Y151272D01*
X301644Y148556D01*
X300335Y145394D01*
X299888Y142000D01*
X300335Y138606D01*
X301644Y135444D01*
X303728Y132728D01*
X306444Y130645D01*
X309606Y129335D01*
X313000Y128888D01*
X428569D01*
X446888Y110569D01*
Y80000D01*
X447335Y76606D01*
X448644Y73444D01*
X450728Y70728D01*
X453444Y68644D01*
X456606Y67335D01*
X460000Y66888D01*
X463394Y67335D01*
X466556Y68644D01*
X469272Y70728D01*
X471356Y73444D01*
X472665Y76606D01*
X473112Y80000D01*
Y116000D01*
X472665Y119394D01*
X471356Y122556D01*
X469272Y125272D01*
X443272Y151272D01*
X440556Y153356D01*
X437394Y154665D01*
X434000Y155112D01*
D02*
G37*
G36*
X498000Y137118D02*
X495659Y136652D01*
X493674Y135326D01*
X492348Y133341D01*
X491883Y131000D01*
X492348Y128659D01*
X492999Y127685D01*
Y94000D01*
X493380Y92086D01*
X494464Y90464D01*
X536120Y48808D01*
X536348Y47659D01*
X537674Y45674D01*
X539659Y44348D01*
X542000Y43882D01*
X544341Y44348D01*
X546326Y45674D01*
X547652Y47659D01*
X548117Y50000D01*
X547652Y52341D01*
X546326Y54326D01*
X544341Y55652D01*
X543192Y55880D01*
X503001Y96072D01*
Y127685D01*
X503652Y128659D01*
X504118Y131000D01*
X503652Y133341D01*
X502326Y135326D01*
X500341Y136652D01*
X498000Y137118D01*
D02*
G37*
G36*
X750000Y69092D02*
X746275Y68725D01*
X742694Y67639D01*
X739393Y65874D01*
X736500Y63500D01*
X734126Y60607D01*
X732361Y57306D01*
X731275Y53725D01*
X730908Y50000D01*
X731275Y46275D01*
X732361Y42694D01*
X734126Y39393D01*
X736500Y36500D01*
X739393Y34126D01*
X742694Y32361D01*
X746275Y31275D01*
X750000Y30908D01*
X753725Y31275D01*
X757306Y32361D01*
X760607Y34126D01*
X763500Y36500D01*
X765874Y39393D01*
X767639Y42694D01*
X768725Y46275D01*
X769092Y50000D01*
X768725Y53725D01*
X767639Y57306D01*
X765874Y60607D01*
X763500Y63500D01*
X760607Y65874D01*
X757306Y67639D01*
X753725Y68725D01*
X750000Y69092D01*
D02*
G37*
G36*
X594253Y105564D02*
X591912Y105098D01*
X589928Y103772D01*
X588601Y101787D01*
X588373Y100639D01*
X578464Y90729D01*
X577380Y89107D01*
X576999Y87193D01*
Y42071D01*
X564929Y30001D01*
X285315D01*
X284341Y30652D01*
X282000Y31117D01*
X279659Y30652D01*
X277674Y29326D01*
X276348Y27341D01*
X275882Y25000D01*
X276348Y22659D01*
X277674Y20674D01*
X279659Y19348D01*
X282000Y18882D01*
X284341Y19348D01*
X285315Y19999D01*
X567000D01*
X568914Y20380D01*
X570536Y21464D01*
X585536Y36464D01*
X586620Y38086D01*
X587001Y40000D01*
Y85121D01*
X595446Y93566D01*
X596595Y93794D01*
X598579Y95121D01*
X599905Y97105D01*
X600371Y99446D01*
X599905Y101787D01*
X598579Y103772D01*
X596595Y105098D01*
X594253Y105564D01*
D02*
G37*
G36*
X170500Y37575D02*
X149500D01*
X146461Y37276D01*
X143540Y36390D01*
X140847Y34950D01*
X138487Y33013D01*
X136550Y30653D01*
X135111Y27960D01*
X134224Y25039D01*
X133925Y22000D01*
X134224Y18961D01*
X135111Y16040D01*
X136550Y13347D01*
X138487Y10987D01*
X140847Y9050D01*
X143540Y7611D01*
X146461Y6724D01*
X149500Y6425D01*
X170500D01*
X173538Y6724D01*
X176460Y7611D01*
X179153Y9050D01*
X181513Y10987D01*
X183450Y13347D01*
X184889Y16040D01*
X185776Y18961D01*
X186075Y22000D01*
X185776Y25039D01*
X184889Y27960D01*
X183450Y30653D01*
X181513Y33013D01*
X179153Y34950D01*
X176460Y36390D01*
X173538Y37276D01*
X170500Y37575D01*
D02*
G37*
%LPD*%
G36*
X569000Y342000D02*
Y328000D01*
X567000Y326000D01*
X564922D01*
X563603Y326881D01*
X561262Y327347D01*
X558921Y326881D01*
X557602Y326000D01*
X556000D01*
X555000Y325000D01*
X555000Y303072D01*
X528385Y276457D01*
X528361Y276441D01*
X522559Y270639D01*
X522543Y270616D01*
X518964Y267036D01*
X517880Y265414D01*
X517747Y264747D01*
X516000Y263000D01*
X516000Y219000D01*
X526922Y208078D01*
Y199000D01*
X527232Y196651D01*
X528139Y194461D01*
X529581Y192581D01*
X531461Y191139D01*
X533651Y190232D01*
X536000Y189922D01*
X538349Y190232D01*
X540539Y191139D01*
X542419Y192581D01*
X543861Y194461D01*
X544768Y196651D01*
X545078Y199000D01*
Y208078D01*
X546000Y209000D01*
Y219000D01*
X554000Y227000D01*
X567000D01*
X574000Y220000D01*
Y172000D01*
X570000Y168000D01*
X523000D01*
X471000Y220000D01*
X456000D01*
X455000Y221000D01*
Y260000D01*
X457000Y262000D01*
X485000D01*
X513250Y290250D01*
X513821Y290364D01*
X515806Y291690D01*
X517132Y293675D01*
X517246Y294246D01*
X529000Y306000D01*
Y331000D01*
X542000Y344000D01*
X567000D01*
X569000Y342000D01*
D02*
G37*
D10*
X460000Y230000D02*
Y240000D01*
Y250000D01*
X470000D01*
Y240000D02*
Y250000D01*
Y230000D02*
Y240000D01*
X557500Y207500D02*
X557771D01*
X562579Y202691D01*
X567309D01*
X567500Y202500D01*
Y215000D01*
X557229Y207500D02*
X557500D01*
X567500Y277500D02*
Y287500D01*
X577500D01*
Y267500D02*
X587500D01*
D57*
X743000Y150000D02*
D03*
X60000Y205000D02*
D03*
D62*
X656500Y299000D02*
X666500Y289000D01*
X571851Y301083D02*
X573934Y299000D01*
X571851Y301083D02*
Y320517D01*
X573934Y299000D02*
X656500D01*
D63*
X526095Y267095D02*
Y267103D01*
X522500Y263500D02*
X526095Y267095D01*
X522500Y225000D02*
Y263500D01*
X526095Y267103D02*
X531897Y272905D01*
X531905D01*
X560843Y301843D02*
Y320811D01*
X531905Y272905D02*
X560843Y301843D01*
Y320811D02*
X561262Y321230D01*
X282000Y25000D02*
X567000D01*
X498000Y94000D02*
X542000Y50000D01*
X498000Y94000D02*
Y131000D01*
X567000Y25000D02*
X582000Y40000D01*
Y87193D01*
X594253Y99446D01*
D64*
X743000Y200000D02*
D03*
X60000Y155000D02*
D03*
D65*
X452000Y278600D02*
D03*
Y304000D02*
D03*
D66*
Y329400D02*
D03*
D67*
X750000Y300000D02*
D03*
X50000D02*
D03*
Y50000D02*
D03*
D68*
X160000Y110000D02*
D03*
Y22000D02*
D03*
D69*
X230000Y91000D02*
D03*
Y66000D02*
D03*
D70*
Y41000D02*
D03*
D71*
X750000Y50000D02*
D03*
D72*
X456001Y92030D02*
D03*
X456000Y101000D02*
D03*
X464000Y92000D02*
D03*
Y101000D02*
D03*
X351000Y147000D02*
D03*
Y138000D02*
D03*
X360000D02*
D03*
Y147000D02*
D03*
X536000Y244000D02*
D03*
Y253000D02*
D03*
Y263000D02*
D03*
Y215000D02*
D03*
X536000Y207000D02*
D03*
X536000Y199000D02*
D03*
X542000Y333000D02*
D03*
X552000D02*
D03*
X562541D02*
D03*
X567500Y215000D02*
D03*
Y202500D02*
D03*
X557500Y207500D02*
D03*
X666500Y289000D02*
D03*
X511480Y296016D02*
D03*
X470000Y191000D02*
D03*
X460000Y230000D02*
D03*
Y240000D02*
D03*
Y250000D02*
D03*
X470000D02*
D03*
Y240000D02*
D03*
Y230000D02*
D03*
X282000Y25000D02*
D03*
X258000Y152650D02*
D03*
X567500Y267500D02*
D03*
X577500Y287500D02*
D03*
X587500Y277500D02*
D03*
X561262Y321230D02*
D03*
X571851Y320517D02*
D03*
X517000Y90000D02*
D03*
X572000Y138000D02*
D03*
X574000Y71000D02*
D03*
X662000Y150000D02*
D03*
X522500Y225000D02*
D03*
X606817Y333784D02*
D03*
X595433Y173821D02*
D03*
X577500Y277500D02*
D03*
X587500Y267500D02*
D03*
Y287500D02*
D03*
X567500Y277500D02*
D03*
Y287500D02*
D03*
X577500Y267500D02*
D03*
X498000Y131000D02*
D03*
X309000Y89000D02*
D03*
X266000Y24000D02*
D03*
X608000Y212000D02*
D03*
X662000Y104000D02*
D03*
X665000Y74000D02*
D03*
X652000Y12000D02*
D03*
X200000Y160000D02*
D03*
X390000Y40000D02*
D03*
X345000Y88000D02*
D03*
X460000Y80000D02*
D03*
X313000Y142000D02*
D03*
X542000Y50000D02*
D03*
X594253Y99446D02*
D03*
D73*
X536000Y199000D02*
Y263000D01*
D74*
X460000Y80000D02*
Y116000D01*
X434000Y142000D02*
X460000Y116000D01*
X313000Y142000D02*
X434000D01*
M02*
