G04*
G04 #@! TF.GenerationSoftware,Altium Limited,Altium Designer,20.2.4 (192)*
G04*
G04 Layer_Physical_Order=1*
G04 Layer_Color=255*
%FSLAX44Y44*%
%MOMM*%
G71*
G04*
G04 #@! TF.SameCoordinates,784D42F2-C5A6-4340-B429-8165139C0F3B*
G04*
G04*
G04 #@! TF.FilePolarity,Positive*
G04*
G01*
G75*
%ADD10C,0.5000*%
%ADD16R,1.2000X1.2000*%
%ADD17R,0.9000X1.3000*%
%ADD18R,1.3000X0.9000*%
%ADD19R,1.3000X0.7000*%
%ADD20R,0.7000X1.3000*%
%ADD21R,1.5000X2.0000*%
%ADD22R,1.3000X2.8000*%
%ADD23R,3.1000X1.6000*%
%ADD24R,6.9000X6.3500*%
%ADD25R,1.5494X0.6096*%
%ADD26R,0.5100X0.4000*%
%ADD27R,1.0000X0.7000*%
%ADD28R,1.5200X2.0300*%
%ADD29R,1.6000X5.7000*%
%ADD30R,1.0000X1.0000*%
%ADD31R,1.2500X0.9500*%
%ADD32R,0.3548X1.5533*%
%ADD50R,3.0988X3.0988*%
%ADD57C,1.9000*%
%ADD60C,1.0160*%
%ADD61C,0.4000*%
%ADD62C,0.3556*%
%ADD63C,0.3810*%
%ADD64R,1.9000X1.9000*%
%ADD65O,2.0000X1.6000*%
%ADD66R,2.0000X1.6000*%
%ADD67C,7.4000*%
%ADD68O,4.6000X2.5000*%
%ADD69C,1.7000*%
%ADD70R,1.7000X1.7000*%
%ADD71C,3.2000*%
%ADD72C,0.6000*%
G36*
X583000Y341000D02*
X583000Y327000D01*
X582000Y326000D01*
X574446D01*
X574192Y326169D01*
X571851Y326635D01*
X569510Y326169D01*
X569257Y326000D01*
X564922D01*
X563603Y326881D01*
X561262Y327347D01*
X558921Y326881D01*
X557602Y326000D01*
X537000Y326000D01*
Y341000D01*
X538000Y342000D01*
X582000D01*
X583000Y341000D01*
D02*
G37*
G36*
X651000Y314000D02*
X654000Y311000D01*
X654000Y286000D01*
X663000D01*
Y266000D01*
X654000D01*
Y242000D01*
X651000Y239000D01*
X599044D01*
X598160Y240270D01*
X598348Y241214D01*
Y245755D01*
X598024Y247383D01*
Y254000D01*
X645000D01*
X647000Y256000D01*
Y296000D01*
X645000Y298000D01*
X598024D01*
Y304617D01*
X598348Y306245D01*
Y311774D01*
X598158Y312730D01*
X599035Y313999D01*
X599036Y314000D01*
X651000Y314000D01*
D02*
G37*
G36*
X516000Y325000D02*
X515000Y324000D01*
X510000D01*
X507000Y321000D01*
Y318500D01*
X505000D01*
Y299500D01*
X505373D01*
X505734Y298593D01*
X505803Y298230D01*
X505363Y296016D01*
X505829Y293675D01*
X507000Y291921D01*
Y286000D01*
X508000Y285000D01*
X544000D01*
X545000Y284000D01*
Y235500D01*
X533573D01*
X524550Y244523D01*
Y247000D01*
X519005D01*
X519000Y247001D01*
X518995Y247000D01*
X513450D01*
X513000Y248084D01*
Y252000D01*
X511000Y254000D01*
X493000D01*
X486000Y261000D01*
Y320268D01*
X486223Y320490D01*
X487279Y322071D01*
X487650Y323935D01*
X487650Y323935D01*
Y337650D01*
X489128Y339128D01*
X516000D01*
Y325000D01*
D02*
G37*
G36*
X581976Y247383D02*
X581652Y245755D01*
Y241214D01*
X581965Y239640D01*
Y236594D01*
X581674Y236159D01*
X581441Y234988D01*
Y224500D01*
X581674Y223330D01*
X582337Y222337D01*
X584000Y220674D01*
Y199000D01*
X570500D01*
Y197372D01*
X566500D01*
Y199000D01*
X554389D01*
X553542Y199847D01*
Y213653D01*
X567018Y227128D01*
X568379D01*
X568379Y227128D01*
X569934Y227438D01*
X570243Y227499D01*
X571367Y228250D01*
X576000D01*
X578500Y230750D01*
Y234988D01*
X578524D01*
Y236896D01*
X578618Y237367D01*
X578618Y237367D01*
Y245734D01*
X578622Y245755D01*
X578524Y246245D01*
Y253500D01*
X581976D01*
Y247383D01*
D02*
G37*
G36*
X479000Y260000D02*
Y222000D01*
X477000Y220000D01*
X461000D01*
X459000Y218000D01*
Y212000D01*
X455000Y208000D01*
X427295D01*
X427000Y208059D01*
X371000D01*
X370704Y208000D01*
X326000D01*
Y208000D01*
X324000Y210000D01*
Y249000D01*
X327000Y252000D01*
X434000D01*
X435000Y253000D01*
Y260000D01*
X437000Y262000D01*
Y262000D01*
X477000D01*
X479000Y260000D01*
D02*
G37*
G36*
X248000Y192000D02*
X247000Y191000D01*
X231000Y191000D01*
X225000Y197000D01*
Y216000D01*
X193000Y216000D01*
X190000Y219000D01*
Y236000D01*
X248000D01*
Y192000D01*
D02*
G37*
G36*
X733250Y259250D02*
X753750Y238750D01*
X753750Y190500D01*
X753250Y190000D01*
X733250Y190000D01*
X733250Y236000D01*
X656315Y312935D01*
X656163Y313163D01*
X656163Y313163D01*
X653163Y316163D01*
X653163Y316163D01*
X652170Y316826D01*
X652170D01*
X652170Y316826D01*
X651000Y317059D01*
X651000Y317059D01*
X599036Y317059D01*
X598827Y317017D01*
X598615Y317030D01*
X598564Y317012D01*
X594976D01*
Y310250D01*
X585348D01*
Y323598D01*
X586250Y324500D01*
X668000D01*
X733250Y259250D01*
D02*
G37*
G36*
X175000Y144000D02*
X50000D01*
Y180000D01*
X105000Y180000D01*
X105000Y238000D01*
X175000D01*
Y144000D01*
D02*
G37*
G36*
X367941Y110059D02*
X359500D01*
X358329Y109826D01*
X357337Y109163D01*
X356933Y108559D01*
X340066D01*
X339663Y109163D01*
X338671Y109826D01*
X337500Y110059D01*
X335267D01*
X334163Y111163D01*
X334163Y111163D01*
X333171Y111826D01*
X332000Y112059D01*
X290000D01*
X289329Y111925D01*
X288059Y112722D01*
Y166733D01*
X290267Y168941D01*
X310302D01*
X310302Y168941D01*
X311473Y169174D01*
X312465Y169837D01*
X312465Y169837D01*
X320163Y177535D01*
X320826Y178527D01*
X321059Y179698D01*
X321059Y179698D01*
Y204000D01*
X367941D01*
X367941Y110059D01*
D02*
G37*
G36*
X594976Y234988D02*
X604524D01*
Y235000D01*
X648250D01*
X723000Y160250D01*
X753750D01*
Y138250D01*
X753250Y137750D01*
X718000D01*
X634250Y221500D01*
X587500D01*
X584500Y224500D01*
Y234988D01*
X585024D01*
Y242500D01*
X594976D01*
Y234988D01*
D02*
G37*
G36*
X427000Y93000D02*
X393000D01*
Y94000D01*
X380059D01*
Y100652D01*
X380171Y100674D01*
X380570Y100941D01*
X404000D01*
X404000Y100941D01*
X405171Y101174D01*
X406163Y101837D01*
X412267Y107941D01*
X427000D01*
Y93000D01*
D02*
G37*
G36*
Y111000D02*
X411000D01*
X404000Y104000D01*
X379000D01*
Y103500D01*
X377000D01*
Y90500D01*
Y84000D01*
X371000D01*
Y84500D01*
X358000D01*
Y90500D01*
X371000D01*
Y92000D01*
X371000Y92000D01*
Y205000D01*
X427000D01*
Y111000D01*
D02*
G37*
G36*
X332000Y109000D02*
X334000Y107000D01*
X337500D01*
Y105500D01*
X359500D01*
Y107000D01*
X367941D01*
Y94000D01*
X355000D01*
Y92000D01*
X353000D01*
X351000Y90000D01*
Y83000D01*
X347000Y79000D01*
X307000D01*
X305000Y81000D01*
Y87000D01*
X299000Y93000D01*
X290000D01*
X288000Y95000D01*
Y107000D01*
X290000Y109000D01*
X332000D01*
Y109000D01*
D02*
G37*
G36*
X544689Y218311D02*
X544170Y217535D01*
X543799Y215671D01*
X543799Y215671D01*
Y197829D01*
X543799Y197829D01*
X544170Y195965D01*
X545226Y194385D01*
X546000Y193610D01*
Y190000D01*
X547500Y188500D01*
Y186000D01*
X566500D01*
Y187628D01*
X570500D01*
Y186000D01*
X572000D01*
X572000Y180898D01*
X571102Y180000D01*
X570500D01*
Y167000D01*
X589500D01*
Y168000D01*
X593940D01*
X595433Y167703D01*
X596925Y168000D01*
X644000Y168000D01*
X645000Y167000D01*
Y159500D01*
X643000D01*
Y140500D01*
X647500D01*
X648000Y140000D01*
X688000D01*
X697000Y131000D01*
Y38000D01*
X695000Y36000D01*
X646000D01*
X645500Y36500D01*
Y38500D01*
X643500D01*
X639000Y43000D01*
Y59000D01*
X639000Y59000D01*
Y61500D01*
X633073D01*
X629336Y65236D01*
X627714Y66320D01*
X626423Y66577D01*
X626000Y67000D01*
X621849D01*
Y67748D01*
X602252D01*
X599000Y71000D01*
X599000Y86000D01*
X601000Y88000D01*
X643000Y88000D01*
X646000Y85000D01*
Y83500D01*
X645000D01*
Y64500D01*
X646000D01*
Y62000D01*
X648000Y60000D01*
X664000Y60000D01*
X672000Y68000D01*
X672000Y107000D01*
X666000Y113000D01*
X658000D01*
Y113500D01*
X650500D01*
X644000Y120000D01*
Y131000D01*
X639000Y136000D01*
X637500Y136000D01*
X637000Y136500D01*
Y136500D01*
X624000D01*
Y134000D01*
X620999Y130999D01*
X601999Y130999D01*
X601898Y130898D01*
X599304D01*
Y128304D01*
X599000Y128000D01*
X599000Y110000D01*
X594512Y105512D01*
X594253Y105564D01*
X591912Y105098D01*
X589928Y103772D01*
X588601Y101787D01*
X588136Y99446D01*
X588187Y99187D01*
X583000Y94000D01*
X521543Y94000D01*
X521326Y94326D01*
X519341Y95652D01*
X517000Y96117D01*
X514659Y95652D01*
X512674Y94326D01*
X512457Y94000D01*
X500000D01*
X498000Y92000D01*
Y87000D01*
X496500D01*
Y74000D01*
X498000D01*
Y68000D01*
X496500D01*
Y55000D01*
X498000D01*
Y55000D01*
X499000Y54000D01*
X530000D01*
X536362Y47638D01*
X537674Y45674D01*
X539638Y44362D01*
X540000Y44000D01*
X541409D01*
X542000Y43882D01*
X542591Y44000D01*
X542994Y44000D01*
X543000Y43999D01*
X546253D01*
Y42952D01*
X563048D01*
X566000Y40000D01*
Y32000D01*
X563000Y29000D01*
X445000Y29000D01*
X442000Y32000D01*
X442000Y44000D01*
X441500Y44500D01*
Y46000D01*
X440000D01*
X440000Y46000D01*
X428000D01*
X423000Y51000D01*
Y54674D01*
X423163Y54837D01*
X423826Y55830D01*
X424059Y57000D01*
X424059Y57000D01*
Y62052D01*
X424671Y62174D01*
X425663Y62837D01*
X426326Y63829D01*
X426348Y63941D01*
X427000D01*
X428171Y64174D01*
X429163Y64837D01*
X429826Y65830D01*
X430059Y67000D01*
Y88000D01*
X430059Y88000D01*
X430000Y88296D01*
Y92704D01*
X430059Y93000D01*
Y105059D01*
X432000Y107000D01*
X460000Y107000D01*
X512000D01*
X512500Y107500D01*
X515500D01*
Y110500D01*
X516000Y111000D01*
X527000D01*
X531000Y107000D01*
X545202Y107000D01*
Y106102D01*
X566696D01*
Y108696D01*
X576000Y118000D01*
Y133457D01*
X576326Y133674D01*
X577652Y135659D01*
X578117Y138000D01*
X577652Y140341D01*
X576326Y142326D01*
X576000Y142543D01*
Y145000D01*
X572000Y149000D01*
X540000Y149000D01*
Y149500D01*
X529500D01*
X525000Y154000D01*
Y189927D01*
X526036Y190964D01*
X527120Y192586D01*
X527501Y194500D01*
Y218501D01*
X529000Y220000D01*
Y221000D01*
X542000D01*
X544689Y218311D01*
D02*
G37*
G36*
X427000Y88000D02*
Y67000D01*
X423500D01*
Y65000D01*
X422000D01*
X421000Y64000D01*
Y57000D01*
X420000Y56000D01*
X399000D01*
X392000Y63000D01*
X381000D01*
X380000Y64000D01*
Y81000D01*
X393000D01*
Y89000D01*
X426000D01*
X427000Y88000D01*
D02*
G37*
G36*
X318000Y248000D02*
Y179698D01*
X310302Y172000D01*
X289000D01*
Y172000D01*
X285000Y168000D01*
Y107296D01*
X284941Y107000D01*
X284941Y107000D01*
Y95000D01*
X285000Y94705D01*
Y93000D01*
X287000Y91000D01*
X287674D01*
X287837Y90837D01*
X288829Y90174D01*
X290000Y89941D01*
X290000Y89941D01*
X297733D01*
X301941Y85733D01*
Y81000D01*
X302000Y80704D01*
Y80000D01*
X302181Y79819D01*
X302837Y78837D01*
X304837Y76837D01*
X305830Y76174D01*
X307000Y75941D01*
X307000Y75941D01*
X347000D01*
X347000Y75941D01*
X348171Y76174D01*
X349163Y76837D01*
X349163Y76837D01*
X353163Y80837D01*
X353730Y81686D01*
X353876Y81692D01*
X355000Y81000D01*
Y81000D01*
X370705D01*
X371000Y80941D01*
X376941D01*
Y64000D01*
X376941Y64000D01*
X376951Y63951D01*
X369000Y56000D01*
X294000D01*
X264500Y85500D01*
Y88500D01*
X246500D01*
X243000Y92000D01*
Y101427D01*
X251573Y110000D01*
X262000D01*
Y111000D01*
X264500D01*
Y114500D01*
X266000Y116000D01*
Y156900D01*
X268250D01*
Y172400D01*
X266000D01*
Y180000D01*
X259000Y187000D01*
X250292D01*
X249371Y188009D01*
X249421Y189095D01*
X250163Y189837D01*
X250826Y190830D01*
X251059Y192000D01*
X251059Y192000D01*
Y236000D01*
X250883Y236883D01*
X265000Y251000D01*
X315000D01*
X318000Y248000D01*
D02*
G37*
D10*
X579500Y212000D02*
Y212809D01*
X577500Y214809D02*
X579500Y212809D01*
X567691Y214809D02*
X577500D01*
X567500Y215000D02*
X567691Y214809D01*
X511480Y296016D02*
Y307980D01*
X512000Y308500D01*
X511500Y309000D02*
X512000Y308500D01*
X511500Y309000D02*
X511500Y309000D01*
X470000Y191000D02*
Y207000D01*
X470000Y191000D02*
X470000Y191000D01*
X258191Y163841D02*
X259000Y164650D01*
X258191Y152841D02*
Y163841D01*
X258000Y152650D02*
X258191Y152841D01*
X258000Y152650D02*
Y155300D01*
X567250Y266250D02*
X577000Y276000D01*
X577000Y276000D02*
X627300D01*
X577000Y276000D02*
X577000Y276000D01*
X525770Y81230D02*
X530000D01*
X517000Y90000D02*
X525770Y81230D01*
X557952Y138000D02*
X572000D01*
X556726Y136773D02*
X557952Y138000D01*
X555949Y137550D02*
X556726Y136773D01*
X557548Y73852D02*
X566877D01*
X557000Y74400D02*
X557548Y73852D01*
X557000Y74400D02*
X570600D01*
X574000Y71000D01*
X650500Y150000D02*
X662000D01*
X595716Y333784D02*
X606817D01*
X595500Y334000D02*
X595716Y333784D01*
X580321Y173821D02*
X595433D01*
X580000Y173500D02*
X580321Y173821D01*
X567250Y245755D02*
Y266250D01*
X255000Y23500D02*
X255309Y23809D01*
X265809D01*
X266000Y24000D01*
X598500Y212000D02*
X608000D01*
X650500Y104000D02*
X662000D01*
X662000Y104000D01*
X652500Y74000D02*
X652500Y74000D01*
X665000D01*
X665000Y74000D01*
X636000Y12000D02*
X636000Y12000D01*
X652000D01*
X200771Y159500D02*
X215000D01*
X200271Y160000D02*
X200771Y159500D01*
X200000Y160000D02*
X200271D01*
X405000Y31500D02*
Y41000D01*
X397500Y24000D02*
X405000Y31500D01*
X394500Y24000D02*
X397500D01*
X393500Y23000D02*
X394500Y24000D01*
X393500Y20000D02*
Y23000D01*
X404191Y40191D02*
X405000Y41000D01*
X390191Y40191D02*
X404191D01*
X390000Y40000D02*
X390191Y40191D01*
X313000Y122000D02*
X325000D01*
X301000D02*
X313000D01*
Y142000D02*
X313000Y142000D01*
X313000Y122000D02*
Y142000D01*
X325000Y122000D02*
X343000D01*
X348500Y127500D01*
Y137000D01*
X413500Y23803D02*
X419303D01*
X412500Y22803D02*
X413500Y23803D01*
X412500Y20000D02*
Y22803D01*
X419303Y23803D02*
X432500Y37000D01*
D16*
X508000Y227500D02*
D03*
Y206500D02*
D03*
X432500Y37000D02*
D03*
Y58000D02*
D03*
D17*
X595500Y334000D02*
D03*
X576500D02*
D03*
X652500Y74000D02*
D03*
X633500D02*
D03*
X631500Y104000D02*
D03*
X650500D02*
D03*
X650500Y150000D02*
D03*
X631500D02*
D03*
X579500Y212000D02*
D03*
X598500D02*
D03*
D18*
X530000Y62230D02*
D03*
Y81230D02*
D03*
X636000Y31000D02*
D03*
Y12000D02*
D03*
X255000Y42500D02*
D03*
Y23500D02*
D03*
X301000Y122000D02*
D03*
Y103000D02*
D03*
X325000Y122000D02*
D03*
Y103000D02*
D03*
X325000Y64500D02*
D03*
Y83500D02*
D03*
X420000Y102500D02*
D03*
Y121500D02*
D03*
D19*
X506000Y80500D02*
D03*
Y61500D02*
D03*
X580000Y192500D02*
D03*
Y173500D02*
D03*
X557000Y173500D02*
D03*
Y192500D02*
D03*
X536000Y248000D02*
D03*
Y229000D02*
D03*
X255000Y82000D02*
D03*
Y63000D02*
D03*
X530000Y100500D02*
D03*
Y119500D02*
D03*
X255000Y98500D02*
D03*
Y117500D02*
D03*
X405000Y60000D02*
D03*
Y41000D02*
D03*
X215000Y140500D02*
D03*
Y159500D02*
D03*
D20*
X651500Y52000D02*
D03*
X632500D02*
D03*
X533500Y140000D02*
D03*
X514500D02*
D03*
X533500Y163000D02*
D03*
X514500D02*
D03*
X489000Y207000D02*
D03*
X470000D02*
D03*
X530500Y309000D02*
D03*
X511500D02*
D03*
X511500Y332000D02*
D03*
X530500D02*
D03*
X490000Y117000D02*
D03*
X509000D02*
D03*
X649500Y127000D02*
D03*
X630500D02*
D03*
X494500Y332000D02*
D03*
X475500D02*
D03*
X412500Y20000D02*
D03*
X393500D02*
D03*
X441500Y80000D02*
D03*
X422500D02*
D03*
D21*
X627300Y276000D02*
D03*
X655000D02*
D03*
D22*
X293000Y230000D02*
D03*
X341000D02*
D03*
D23*
X206000Y182140D02*
D03*
Y227860D02*
D03*
D24*
X140000Y205000D02*
D03*
D25*
X557000Y74400D02*
D03*
Y61700D02*
D03*
Y49000D02*
D03*
Y36300D02*
D03*
X611102Y74400D02*
D03*
Y61700D02*
D03*
Y49000D02*
D03*
Y36300D02*
D03*
X555949Y137550D02*
D03*
Y124850D02*
D03*
Y112150D02*
D03*
Y99450D02*
D03*
X610051Y137550D02*
D03*
Y124850D02*
D03*
Y112150D02*
D03*
Y99450D02*
D03*
D26*
X506100Y247000D02*
D03*
X519000Y252000D02*
D03*
Y242000D02*
D03*
D27*
X385000Y78000D02*
D03*
Y87500D02*
D03*
Y97000D02*
D03*
X363000Y78000D02*
D03*
Y97000D02*
D03*
Y87500D02*
D03*
D28*
X239600Y225000D02*
D03*
X270000D02*
D03*
D29*
X395500Y137000D02*
D03*
X348500D02*
D03*
D30*
X237000Y164250D02*
D03*
Y195750D02*
D03*
D31*
X259000Y164650D02*
D03*
Y197350D02*
D03*
D32*
X599750Y306245D02*
D03*
X593250D02*
D03*
X586750D02*
D03*
X580250D02*
D03*
X573750D02*
D03*
X567250D02*
D03*
X560750D02*
D03*
X554250D02*
D03*
Y245755D02*
D03*
X560750D02*
D03*
X567250D02*
D03*
X573750D02*
D03*
X580250D02*
D03*
X586750D02*
D03*
X593250D02*
D03*
X599750D02*
D03*
D50*
X577000Y276000D02*
D03*
D57*
X743000Y150000D02*
D03*
X60000Y205000D02*
D03*
D60*
X782220Y107548D02*
D03*
X694000Y332000D02*
D03*
X110000Y330000D02*
D03*
X65407Y105831D02*
D03*
D61*
X542000Y333000D02*
X552000D01*
X562541D01*
X593024Y312000D02*
X593250Y311774D01*
X586750Y306245D02*
Y311774D01*
X586976Y312000D02*
X593024D01*
X593250Y306245D02*
Y311774D01*
X586750D02*
X586976Y312000D01*
X587476Y240488D02*
X592524D01*
X593250Y241214D01*
X586750D02*
X587476Y240488D01*
X586750Y241214D02*
Y245755D01*
X593250Y241214D02*
Y245755D01*
X564541Y334000D02*
X576500D01*
X563541Y333000D02*
X564541Y334000D01*
X580250Y306245D02*
Y328250D01*
X576500Y332000D02*
X580250Y328250D01*
X576500Y332000D02*
Y334000D01*
D62*
X548671Y197829D02*
X554000Y192500D01*
X548671Y197829D02*
Y215671D01*
X565000Y232000D01*
X554000Y192500D02*
X557000D01*
X557000Y192500D02*
X580000D01*
X665000Y289000D02*
X666500D01*
X660722Y284722D02*
X665000Y289000D01*
X660722Y281722D02*
Y284722D01*
X655000Y276000D02*
X660722Y281722D01*
X482778Y323935D02*
Y341917D01*
X521139Y344000D02*
X523222Y341917D01*
Y318278D02*
Y341917D01*
X482778D02*
X484861Y344000D01*
X521139D01*
X523222Y318278D02*
X523222Y318278D01*
X523222Y300935D02*
Y318278D01*
Y300935D02*
X529456Y294701D01*
X561262Y321152D02*
X567254Y315161D01*
X561262Y321152D02*
Y321230D01*
X571851Y319657D02*
Y320517D01*
Y319657D02*
X573754Y317754D01*
Y306250D02*
Y317754D01*
X567250Y306245D02*
X567254Y306250D01*
Y315161D01*
X573750Y306245D02*
X573754Y306250D01*
X568379Y232000D02*
X573746Y237367D01*
X565000Y232000D02*
X568379D01*
X573746Y237367D02*
Y245751D01*
X573750Y245755D01*
X552379Y229000D02*
X560746Y237367D01*
Y245751D01*
X536000Y229000D02*
X552379D01*
X529456Y294701D02*
X557589D01*
X466000Y316000D02*
X474843D01*
X557589Y294701D02*
X560746Y297858D01*
X474843Y316000D02*
X482778Y323935D01*
X452000Y304000D02*
X454000D01*
X560746Y297858D02*
Y306241D01*
X454000Y304000D02*
X466000Y316000D01*
X560746Y306241D02*
X560750Y306245D01*
X560746Y245751D02*
X560750Y245755D01*
D63*
X259595Y74405D02*
Y80405D01*
Y74405D02*
X272000Y62000D01*
Y35000D02*
Y62000D01*
Y35000D02*
X282000Y25000D01*
X258000Y82000D02*
X259595Y80405D01*
X255000Y82000D02*
X258000D01*
X522500Y194500D02*
Y225000D01*
X490000Y162000D02*
X522500Y194500D01*
X506388Y131000D02*
X514500Y139112D01*
X498000Y131000D02*
X506388D01*
X219595Y142095D02*
Y142095D01*
X236905Y161905D02*
X240000Y165000D01*
X219595Y142095D02*
X236905Y159405D01*
Y161905D01*
X218000Y140500D02*
X219595Y142095D01*
X402952Y78000D02*
X420905D01*
X385000D02*
X402952D01*
X405000Y60000D02*
Y75953D01*
X402952Y78000D02*
X405000Y75953D01*
X420905Y78000D02*
X422500Y79595D01*
Y80000D01*
X516675Y72825D02*
X539108D01*
X547635Y81353D02*
X575647D01*
X509000Y80500D02*
X516675Y72825D01*
X575647Y81353D02*
X595300Y61700D01*
X539108Y72825D02*
X547635Y81353D01*
X506000Y80500D02*
X509000D01*
X532095Y307000D02*
X554119D01*
X530500Y308595D02*
X532095Y307000D01*
X530500Y308595D02*
Y313595D01*
Y332000D01*
X530500Y332000D01*
X452000Y329400D02*
X473905D01*
X475500Y330995D01*
Y332000D01*
X252000Y117500D02*
X255000D01*
X232524Y98024D02*
X252000Y117500D01*
X232524Y93524D02*
Y98024D01*
X230000Y91000D02*
X232524Y93524D01*
X230000Y91000D02*
X251269Y69731D01*
X252864Y63000D02*
X255000D01*
X251269Y64595D02*
X252864Y63000D01*
X251269Y64595D02*
Y69731D01*
X255000Y42500D02*
Y63000D01*
X206140Y182000D02*
X228267D01*
X237403Y167597D02*
X240000Y165000D01*
X237403Y167597D02*
Y172865D01*
X228267Y182000D02*
X237403Y172865D01*
X206000Y182140D02*
X206140Y182000D01*
X215000Y140500D02*
X218000D01*
X533000Y229000D02*
X536000D01*
X520095Y241905D02*
X533000Y229000D01*
X519095Y241905D02*
X520095D01*
X519000Y242000D02*
X519095Y241905D01*
X508000Y227500D02*
Y245650D01*
X506650Y247000D02*
X508000Y245650D01*
X506100Y247000D02*
X506650D01*
X489000Y207000D02*
X507500D01*
X508000Y206500D01*
X542000Y50000D02*
X543000Y49000D01*
X490000Y117000D02*
Y162000D01*
X514500Y140000D02*
Y163000D01*
X631000Y106500D02*
Y126500D01*
X610051Y112150D02*
X625350D01*
X631000Y106500D01*
Y104500D02*
Y106500D01*
X629350Y124850D02*
X631000Y126500D01*
X610051Y124850D02*
X629350D01*
X631000Y104500D02*
X631500Y104000D01*
X611102Y36300D02*
X628700D01*
X634000Y31000D01*
X636000D01*
X595300Y61700D02*
X611102D01*
X557000D02*
X579300D01*
X592000Y49000D02*
X611102D01*
X579300Y61700D02*
X592000Y49000D01*
X632500Y52000D02*
Y55000D01*
X625800Y61700D02*
X632500Y55000D01*
X611102Y61700D02*
X625800D01*
X530266Y61965D02*
X556735D01*
X506365Y61865D02*
X529635D01*
X530000Y62230D01*
X543000Y49000D02*
X557000D01*
X530000Y62230D02*
X530266Y61965D01*
X556735D02*
X557000Y61700D01*
X506000Y61500D02*
X506365Y61865D01*
X530000Y119500D02*
X531481Y118019D01*
X538981D01*
X555870Y112229D02*
X555949Y112150D01*
X544771Y112229D02*
X555870D01*
X538981Y118019D02*
X544771Y112229D01*
X509000Y117000D02*
X510000Y118000D01*
X528500D01*
X530000Y119500D01*
X551250Y124850D02*
X555949D01*
X540695Y135405D02*
X551250Y124850D01*
X535095Y135405D02*
X540695D01*
X533500Y137000D02*
X535095Y135405D01*
X533500Y137000D02*
Y140000D01*
X514500Y139112D02*
Y140000D01*
X594253Y99446D02*
X610047D01*
X610051Y99450D01*
D64*
X743000Y200000D02*
D03*
X60000Y155000D02*
D03*
D65*
X452000Y278600D02*
D03*
Y304000D02*
D03*
D66*
Y329400D02*
D03*
D67*
X750000Y300000D02*
D03*
X50000D02*
D03*
Y50000D02*
D03*
D68*
X160000Y110000D02*
D03*
Y22000D02*
D03*
D69*
X230000Y91000D02*
D03*
Y66000D02*
D03*
D70*
Y41000D02*
D03*
D71*
X750000Y50000D02*
D03*
D72*
X456001Y92030D02*
D03*
X456000Y101000D02*
D03*
X464000Y92000D02*
D03*
Y101000D02*
D03*
X351000Y147000D02*
D03*
Y138000D02*
D03*
X360000D02*
D03*
Y147000D02*
D03*
X536000Y244000D02*
D03*
Y253000D02*
D03*
Y263000D02*
D03*
Y215000D02*
D03*
X536000Y207000D02*
D03*
X536000Y199000D02*
D03*
X542000Y333000D02*
D03*
X552000D02*
D03*
X562541D02*
D03*
X567500Y215000D02*
D03*
Y202500D02*
D03*
X557500Y207500D02*
D03*
X666500Y289000D02*
D03*
X511480Y296016D02*
D03*
X470000Y191000D02*
D03*
X460000Y230000D02*
D03*
Y240000D02*
D03*
Y250000D02*
D03*
X470000D02*
D03*
Y240000D02*
D03*
Y230000D02*
D03*
X282000Y25000D02*
D03*
X258000Y152650D02*
D03*
X567500Y267500D02*
D03*
X577500Y287500D02*
D03*
X587500Y277500D02*
D03*
X561262Y321230D02*
D03*
X571851Y320517D02*
D03*
X517000Y90000D02*
D03*
X572000Y138000D02*
D03*
X574000Y71000D02*
D03*
X662000Y150000D02*
D03*
X522500Y225000D02*
D03*
X606817Y333784D02*
D03*
X595433Y173821D02*
D03*
X577500Y277500D02*
D03*
X587500Y267500D02*
D03*
Y287500D02*
D03*
X567500Y277500D02*
D03*
Y287500D02*
D03*
X577500Y267500D02*
D03*
X498000Y131000D02*
D03*
X309000Y89000D02*
D03*
X266000Y24000D02*
D03*
X608000Y212000D02*
D03*
X662000Y104000D02*
D03*
X665000Y74000D02*
D03*
X652000Y12000D02*
D03*
X200000Y160000D02*
D03*
X390000Y40000D02*
D03*
X345000Y88000D02*
D03*
X460000Y80000D02*
D03*
X313000Y142000D02*
D03*
X542000Y50000D02*
D03*
X594253Y99446D02*
D03*
M02*
