G04*
G04 #@! TF.GenerationSoftware,Altium Limited,Altium Designer,20.2.4 (192)*
G04*
G04 Layer_Color=8421504*
%FSLAX44Y44*%
%MOMM*%
G71*
G04*
G04 #@! TF.SameCoordinates,784D42F2-C5A6-4340-B429-8165139C0F3B*
G04*
G04*
G04 #@! TF.FilePolarity,Positive*
G04*
G01*
G75*
%ADD16R,1.2000X1.2000*%
%ADD17R,0.9000X1.3000*%
%ADD18R,1.3000X0.9000*%
%ADD19R,1.3000X0.7000*%
%ADD20R,0.7000X1.3000*%
%ADD21R,1.5000X2.0000*%
%ADD22R,1.3000X2.8000*%
%ADD23R,3.1000X1.6000*%
%ADD24R,6.9000X6.3500*%
%ADD25R,1.5494X0.6096*%
%ADD26R,0.5100X0.4000*%
%ADD27R,1.0000X0.7000*%
%ADD28R,1.5200X2.0300*%
%ADD29R,1.6000X5.7000*%
%ADD30R,1.0000X1.0000*%
%ADD31R,1.2500X0.9500*%
%ADD32R,0.3548X1.5533*%
%ADD33R,0.0254X0.0254*%
G36*
X576000Y261506D02*
Y275000D01*
X562506D01*
Y261506D01*
X576000D01*
D02*
G37*
G36*
Y277000D02*
Y290494D01*
X562506D01*
Y277000D01*
X576000D01*
D02*
G37*
G36*
X591494Y261506D02*
Y275000D01*
X578000D01*
Y261506D01*
X591494D01*
D02*
G37*
G36*
Y277000D02*
Y290494D01*
X578000D01*
Y277000D01*
X591494D01*
D02*
G37*
D16*
X508000Y227500D02*
D03*
Y206500D02*
D03*
X432500Y37000D02*
D03*
Y58000D02*
D03*
D17*
X595500Y334000D02*
D03*
X576500D02*
D03*
X652500Y74000D02*
D03*
X633500D02*
D03*
X631500Y104000D02*
D03*
X650500D02*
D03*
X650500Y150000D02*
D03*
X631500D02*
D03*
X579500Y212000D02*
D03*
X598500D02*
D03*
D18*
X530000Y62230D02*
D03*
Y81230D02*
D03*
X636000Y31000D02*
D03*
Y12000D02*
D03*
X255000Y42500D02*
D03*
Y23500D02*
D03*
X301000Y122000D02*
D03*
Y103000D02*
D03*
X325000Y122000D02*
D03*
Y103000D02*
D03*
X325000Y64500D02*
D03*
Y83500D02*
D03*
X420000Y102500D02*
D03*
Y121500D02*
D03*
D19*
X506000Y80500D02*
D03*
Y61500D02*
D03*
X580000Y192500D02*
D03*
Y173500D02*
D03*
X557000Y173500D02*
D03*
Y192500D02*
D03*
X536000Y248000D02*
D03*
Y229000D02*
D03*
X255000Y82000D02*
D03*
Y63000D02*
D03*
X530000Y100500D02*
D03*
Y119500D02*
D03*
X255000Y98500D02*
D03*
Y117500D02*
D03*
X405000Y60000D02*
D03*
Y41000D02*
D03*
X215000Y140500D02*
D03*
Y159500D02*
D03*
D20*
X651500Y52000D02*
D03*
X632500D02*
D03*
X533500Y140000D02*
D03*
X514500D02*
D03*
X533500Y163000D02*
D03*
X514500D02*
D03*
X489000Y207000D02*
D03*
X470000D02*
D03*
X530500Y309000D02*
D03*
X511500D02*
D03*
X511500Y332000D02*
D03*
X530500D02*
D03*
X490000Y117000D02*
D03*
X509000D02*
D03*
X649500Y127000D02*
D03*
X630500D02*
D03*
X494500Y332000D02*
D03*
X475500D02*
D03*
X412500Y20000D02*
D03*
X393500D02*
D03*
X441500Y80000D02*
D03*
X422500D02*
D03*
D21*
X627300Y276000D02*
D03*
X655000D02*
D03*
D22*
X293000Y230000D02*
D03*
X341000D02*
D03*
D23*
X206000Y182140D02*
D03*
Y227860D02*
D03*
D24*
X140000Y205000D02*
D03*
D25*
X557000Y74400D02*
D03*
Y61700D02*
D03*
Y49000D02*
D03*
Y36300D02*
D03*
X611102Y74400D02*
D03*
Y61700D02*
D03*
Y49000D02*
D03*
Y36300D02*
D03*
X555949Y137550D02*
D03*
Y124850D02*
D03*
Y112150D02*
D03*
Y99450D02*
D03*
X610051Y137550D02*
D03*
Y124850D02*
D03*
Y112150D02*
D03*
Y99450D02*
D03*
D26*
X506100Y247000D02*
D03*
X519000Y252000D02*
D03*
Y242000D02*
D03*
D27*
X385000Y78000D02*
D03*
Y87500D02*
D03*
Y97000D02*
D03*
X363000Y78000D02*
D03*
Y97000D02*
D03*
Y87500D02*
D03*
D28*
X239600Y225000D02*
D03*
X270000D02*
D03*
D29*
X395500Y137000D02*
D03*
X348500D02*
D03*
D30*
X237000Y164250D02*
D03*
Y195750D02*
D03*
D31*
X259000Y164650D02*
D03*
Y197350D02*
D03*
D32*
X599750Y306245D02*
D03*
X593250D02*
D03*
X586750D02*
D03*
X580250D02*
D03*
X573750D02*
D03*
X567250D02*
D03*
X560750D02*
D03*
X554250D02*
D03*
Y245755D02*
D03*
X560750D02*
D03*
X567250D02*
D03*
X573750D02*
D03*
X580250D02*
D03*
X586750D02*
D03*
X593250D02*
D03*
X599750D02*
D03*
D33*
X577000Y276000D02*
D03*
M02*
