G04*
G04 #@! TF.GenerationSoftware,Altium Limited,Altium Designer,20.2.4 (192)*
G04*
G04 Layer_Color=8388736*
%FSLAX44Y44*%
%MOMM*%
G71*
G04*
G04 #@! TF.SameCoordinates,784D42F2-C5A6-4340-B429-8165139C0F3B*
G04*
G04*
G04 #@! TF.FilePolarity,Negative*
G04*
G01*
G75*
%ADD16R,1.2000X1.2000*%
%ADD32R,0.3548X1.5533*%
%ADD34R,1.4000X1.4000*%
%ADD35R,1.1000X1.5000*%
%ADD36R,1.5000X1.1000*%
%ADD37R,1.5000X0.9000*%
%ADD38R,0.9000X1.5000*%
%ADD39R,1.7000X2.2000*%
%ADD40R,1.5000X3.0000*%
%ADD41R,3.3000X1.8000*%
%ADD42R,7.1000X6.5500*%
%ADD43R,1.7494X0.8096*%
%ADD44R,0.7100X0.6000*%
%ADD45R,1.0508X0.7508*%
%ADD46R,1.7200X2.2300*%
%ADD47C,3.0480*%
%ADD48R,1.8000X5.9000*%
%ADD49R,1.4500X1.1500*%
%ADD50R,3.0988X3.0988*%
%ADD51C,2.1000*%
%ADD52R,2.1000X2.1000*%
%ADD53O,2.2000X1.8000*%
%ADD54R,2.2000X1.8000*%
%ADD55C,7.6000*%
%ADD56O,4.8000X2.7000*%
%ADD57C,1.9000*%
%ADD58R,1.9000X1.9000*%
%ADD59C,3.4000*%
D16*
X237000Y164250D02*
D03*
Y195750D02*
D03*
D32*
X599750Y306245D02*
D03*
X593250D02*
D03*
X586750D02*
D03*
X580250D02*
D03*
X573750D02*
D03*
X567250D02*
D03*
X560750D02*
D03*
X554250D02*
D03*
Y245755D02*
D03*
X560750D02*
D03*
X567250D02*
D03*
X573750D02*
D03*
X580250D02*
D03*
X586750D02*
D03*
X593250D02*
D03*
X599750D02*
D03*
D34*
X508000Y227500D02*
D03*
Y206500D02*
D03*
X432500Y37000D02*
D03*
Y58000D02*
D03*
D35*
X595500Y334000D02*
D03*
X576500D02*
D03*
X652500Y74000D02*
D03*
X633500D02*
D03*
X631500Y104000D02*
D03*
X650500D02*
D03*
X650500Y150000D02*
D03*
X631500D02*
D03*
X579500Y212000D02*
D03*
X598500D02*
D03*
D36*
X530000Y62230D02*
D03*
Y81230D02*
D03*
X636000Y31000D02*
D03*
Y12000D02*
D03*
X255000Y42500D02*
D03*
Y23500D02*
D03*
X301000Y122000D02*
D03*
Y103000D02*
D03*
X325000Y122000D02*
D03*
Y103000D02*
D03*
X325000Y64500D02*
D03*
Y83500D02*
D03*
X420000Y102500D02*
D03*
Y121500D02*
D03*
D37*
X506000Y80500D02*
D03*
Y61500D02*
D03*
X580000Y192500D02*
D03*
Y173500D02*
D03*
X557000Y173500D02*
D03*
Y192500D02*
D03*
X536000Y248000D02*
D03*
Y229000D02*
D03*
X255000Y82000D02*
D03*
Y63000D02*
D03*
X530000Y100500D02*
D03*
Y119500D02*
D03*
X255000Y98500D02*
D03*
Y117500D02*
D03*
X405000Y60000D02*
D03*
Y41000D02*
D03*
X215000Y140500D02*
D03*
Y159500D02*
D03*
D38*
X651500Y52000D02*
D03*
X632500D02*
D03*
X533500Y140000D02*
D03*
X514500D02*
D03*
X533500Y163000D02*
D03*
X514500D02*
D03*
X489000Y207000D02*
D03*
X470000D02*
D03*
X530500Y309000D02*
D03*
X511500D02*
D03*
X511500Y332000D02*
D03*
X530500D02*
D03*
X490000Y117000D02*
D03*
X509000D02*
D03*
X649500Y127000D02*
D03*
X630500D02*
D03*
X494500Y332000D02*
D03*
X475500D02*
D03*
X412500Y20000D02*
D03*
X393500D02*
D03*
X441500Y80000D02*
D03*
X422500D02*
D03*
D39*
X627300Y276000D02*
D03*
X655000D02*
D03*
D40*
X293000Y230000D02*
D03*
X341000D02*
D03*
D41*
X206000Y182140D02*
D03*
Y227860D02*
D03*
D42*
X140000Y205000D02*
D03*
D43*
X557000Y74400D02*
D03*
Y61700D02*
D03*
Y49000D02*
D03*
Y36300D02*
D03*
X611102Y74400D02*
D03*
Y61700D02*
D03*
Y49000D02*
D03*
Y36300D02*
D03*
X555949Y137550D02*
D03*
Y124850D02*
D03*
Y112150D02*
D03*
Y99450D02*
D03*
X610051Y137550D02*
D03*
Y124850D02*
D03*
Y112150D02*
D03*
Y99450D02*
D03*
D44*
X506100Y247000D02*
D03*
X519000Y252000D02*
D03*
Y242000D02*
D03*
D45*
X385000Y78000D02*
D03*
Y87500D02*
D03*
Y97000D02*
D03*
X363000Y78000D02*
D03*
Y97000D02*
D03*
Y87500D02*
D03*
D46*
X239600Y225000D02*
D03*
X270000D02*
D03*
D47*
X782220Y107548D02*
D03*
X694000Y332000D02*
D03*
X110000Y330000D02*
D03*
X65407Y105831D02*
D03*
D48*
X395500Y137000D02*
D03*
X348500D02*
D03*
D49*
X259000Y164650D02*
D03*
Y197350D02*
D03*
D50*
X577000Y276000D02*
D03*
D51*
X743000Y150000D02*
D03*
X60000Y205000D02*
D03*
D52*
X743000Y200000D02*
D03*
X60000Y155000D02*
D03*
D53*
X452000Y278600D02*
D03*
Y304000D02*
D03*
D54*
Y329400D02*
D03*
D55*
X750000Y300000D02*
D03*
X50000D02*
D03*
Y50000D02*
D03*
D56*
X160000Y110000D02*
D03*
Y22000D02*
D03*
D57*
X230000Y91000D02*
D03*
Y66000D02*
D03*
D58*
Y41000D02*
D03*
D59*
X750000Y50000D02*
D03*
M02*
