M48
;Layer_Color=9474304
;FILE_FORMAT=4:4
METRIC,LZ
;TYPE=PLATED
T1F00S00C0.3000
T2F00S00C1.1000
T3F00S00C1.2000
T4F00S00C1.3000
T6F00S00C3.2000
;TYPE=NON_PLATED
T7F00S00C3.2000
%
T01
X00266Y00024
X00282Y00025
X00309Y00089
X00345Y00088
X00351Y00138
X0036
Y00147
X00351
X00313Y00142
X00258Y0015265
X002Y0016
X0047Y00191
X00536Y00199
X00536Y00207
X00536Y00215
X005225Y00225
X00498Y00131
X00517Y0009
X00464Y00092
X00456001Y0009203
X00456Y00101
X00464
X0046Y0008
X0039Y0004
X00542Y0005
X00574Y00071
X00594253Y00099446
X00572Y00138
X00595433Y00173821
X00608Y00212
X005675Y00215
Y002025
X005575Y002075
X00662Y0015
Y00104
X00665Y00074
X00652Y00012
X006665Y00289
X005875Y002875
X005775
X005675
Y002775
X005775
X005875
Y002675
X005775
X005675
X00571851Y00320517
X00561262Y0032123
X00562541Y00333
X00606817Y00333784
X00552Y00333
X00542
X0051148Y00296016
X00536Y00263
Y00253
Y00244
X0047Y0024
X0046
Y0023
X0047
Y0025
X0046
T02
X00452Y002786
Y00304
Y003294
T03
X0023Y00041
Y00066
Y00091
T04
X0006Y00155
Y00205
X00743Y002
Y0015
T06
X0005Y0005
X0075Y003
X0005
T07
X0075Y0005
M30
